<svg xmlns="http://www.w3.org/2000/svg" xmlns:xlink="http://www.w3.org/1999/xlink" width="220" zoomAndPan="magnify" viewBox="0 0 165 159.000002" height="212" preserveAspectRatio="xMidYMid meet" version="1.0"><defs><clipPath id="d30830be4e"><path d="M 4.335938 15.050781 L 160.851562 15.050781 L 160.851562 114 L 4.335938 114 Z M 4.335938 15.050781 " clip-rule="nonzero"/></clipPath></defs><g clip-path="url(#d30830be4e)"><path fill="#ffffff" d="M 75.433594 29.183594 C 55.917969 29.183594 40.101562 45 40.101562 64.515625 C 40.101562 68.417969 36.9375 71.582031 33.035156 71.582031 C 25.226562 71.582031 18.902344 77.910156 18.902344 85.714844 C 18.902344 93.519531 25.226562 99.847656 33.035156 99.847656 L 41.867188 99.847656 L 41.867188 113.980469 L 33.035156 113.980469 C 17.421875 113.980469 4.769531 101.324219 4.769531 85.714844 C 4.769531 72.402344 13.972656 61.238281 26.363281 58.238281 C 29.445312 33.882812 50.238281 15.050781 75.433594 15.050781 C 95.289062 15.050781 112.402344 26.746094 120.277344 43.617188 C 121.792969 43.417969 123.332031 43.316406 124.898438 43.316406 C 144.410156 43.316406 160.230469 59.132812 160.230469 78.648438 C 160.230469 87.769531 157.566406 96.527344 152.09375 103.140625 C 146.511719 109.886719 138.328125 113.980469 128.429688 113.980469 L 123.132812 113.980469 L 123.132812 99.847656 L 128.429688 99.847656 C 134.144531 99.847656 138.324219 97.613281 141.207031 94.128906 C 144.199219 90.511719 146.097656 85.136719 146.097656 78.648438 C 146.097656 66.9375 136.605469 57.449219 124.898438 57.449219 C 122.527344 57.449219 120.261719 57.835938 118.152344 58.542969 C 116.351562 59.144531 114.382812 59 112.691406 58.136719 C 111 57.273438 109.726562 55.765625 109.160156 53.953125 C 104.667969 39.589844 91.257812 29.183594 75.433594 29.183594 Z M 75.433594 29.183594 " fill-opacity="1" fill-rule="evenodd"/></g><path fill="#ffffff" d="M 75.433594 85.714844 L 89.566406 85.714844 L 89.566406 131.644531 L 75.433594 131.644531 Z M 75.433594 85.714844 " fill-opacity="1" fill-rule="evenodd"/><path fill="#ffffff" d="M 77.503906 140.175781 L 56.304688 118.976562 L 66.296875 108.984375 L 82.5 125.1875 L 98.703125 108.984375 L 108.695312 118.976562 L 87.496094 140.175781 C 84.738281 142.933594 80.261719 142.933594 77.503906 140.175781 Z M 77.503906 140.175781 " fill-opacity="1" fill-rule="evenodd"/></svg>