<?xml version="1.0" encoding="UTF-8" standalone="no"?>
<!-- Created with Inkscape (http://www.inkscape.org/) -->

<svg
   width="32mm"
   height="32mm"
   viewBox="0 0 32 32"
   version="1.1"
   id="svg1"
   xml:space="preserve"
   inkscape:version="1.4.2 (ebf0e940d0, 2025-05-08)"
   sodipodi:docname="linuxtoys.svg"
   xmlns:inkscape="http://www.inkscape.org/namespaces/inkscape"
   xmlns:sodipodi="http://sodipodi.sourceforge.net/DTD/sodipodi-0.dtd"
   xmlns:xlink="http://www.w3.org/1999/xlink"
   xmlns="http://www.w3.org/2000/svg"
   xmlns:svg="http://www.w3.org/2000/svg"><sodipodi:namedview
     id="namedview1"
     pagecolor="#505050"
     bordercolor="#eeeeee"
     borderopacity="1"
     inkscape:showpageshadow="0"
     inkscape:pageopacity="0"
     inkscape:pagecheckerboard="0"
     inkscape:deskcolor="#505050"
     inkscape:document-units="mm"
     inkscape:zoom="2.993266"
     inkscape:cx="89.701349"
     inkscape:cy="22.383577"
     inkscape:window-width="1920"
     inkscape:window-height="1043"
     inkscape:window-x="0"
     inkscape:window-y="0"
     inkscape:window-maximized="1"
     inkscape:current-layer="layer1" /><defs
     id="defs1"><linearGradient
       y2="236"
       x2="96"
       y1="236"
       x1="32"
       gradientTransform="translate(604.81684,170.58641)"
       gradientUnits="userSpaceOnUse"
       id="linearGradient1099"
       xlink:href="#linearGradient1036" /><linearGradient
       id="linearGradient1036"><stop
         id="stop1032"
         offset="0"
         style="stop-color:#d5d3cf;stop-opacity:1;" /><stop
         id="stop1034"
         offset="1"
         style="stop-color:#f6f5f4;stop-opacity:1" /></linearGradient><radialGradient
       r="32"
       fy="-76"
       fx="-244"
       cy="-76"
       cx="-244"
       gradientTransform="matrix(0.88333331,0,0,0.88333331,-460.35018,463.11973)"
       gradientUnits="userSpaceOnUse"
       id="radialGradient1103"
       xlink:href="#linearGradient1069" /><linearGradient
       id="linearGradient1069"><stop
         id="stop1065"
         offset="0"
         style="stop-color:#d5d3cf;stop-opacity:1" /><stop
         id="stop1067-1"
         offset="1"
         style="stop-color:#949390;stop-opacity:1" /></linearGradient><linearGradient
       gradientUnits="userSpaceOnUse"
       y2="232"
       x2="64"
       y1="262.5"
       x1="64"
       id="linearGradient1027"
       xlink:href="#linearGradient1025"
       gradientTransform="translate(-470.5864,432.81685)" /><linearGradient
       id="linearGradient1025"><stop
         id="stop1021"
         offset="0"
         style="stop-color:#9a9996;stop-opacity:1" /><stop
         id="stop1023"
         offset="1"
         style="stop-color:#77767b;stop-opacity:1" /></linearGradient><inkscape:path-effect
       effect="spiro"
       id="path-effect35304-9"
       is_visible="true"
       lpeversion="0" /><clipPath
       clipPathUnits="userSpaceOnUse"
       id="clipPath1609-7"><path
         sodipodi:nodetypes="cccccc"
         inkscape:connector-curvature="0"
         id="path1611-5"
         d="m 252,116 28,-28 v -8 h -36 v 36 z"
         style="fill:#e74747;stroke:none;stroke-width:0.25px;stroke-linecap:butt;stroke-linejoin:miter;stroke-opacity:1" /></clipPath><radialGradient
       r="32"
       fy="-76"
       fx="-244"
       cy="-76"
       cx="-244"
       gradientTransform="matrix(0.88333331,0,0,0.88333331,-460.35018,463.11973)"
       gradientUnits="userSpaceOnUse"
       id="radialGradient1103-9"
       xlink:href="#linearGradient1069" /><inkscape:path-effect
       effect="spiro"
       id="path-effect35304-9-2"
       is_visible="true"
       lpeversion="0" /><clipPath
       clipPathUnits="userSpaceOnUse"
       id="clipPath1609-7-6"><path
         sodipodi:nodetypes="cccccc"
         inkscape:connector-curvature="0"
         id="path1611-5-1"
         d="m 252,116 28,-28 v -8 h -36 v 36 z"
         style="fill:#e74747;stroke:none;stroke-width:0.25px;stroke-linecap:butt;stroke-linejoin:miter;stroke-opacity:1" /></clipPath></defs><g
     inkscape:label="Camada 1"
     inkscape:groupmode="layer"
     id="layer1"><g
       id="g91"
       transform="translate(-1.0383,-94.505141)"><g
         id="g87"
         transform="matrix(0.19039814,0,0,0.19100258,-38.584583,121.39756)"><path
           id="rect75"
           style="opacity:1;stroke-width:0.268064"
           d="m 292.89375,-135.52403 c -15.24526,-1e-5 -27.60806,12.351 -27.6226,27.59625 v 0.0264 c -6e-5,1.40255 -0.42246,3.33223 -0.20981,4.71857 0.30644,26.509269 -32.31466,34.555022 -30.55524,38.479306 l 58.38765,0.125057 58.38765,-0.125057 c 1.75943,-3.924286 -30.8617,-11.970013 -30.55524,-38.479306 0.21265,-1.38634 -0.20975,-3.31602 -0.20981,-4.71857 0,-15.25554 -12.36706,-27.62261 -27.6226,-27.62261 z"
           sodipodi:nodetypes="sssccccccs" /><path
           style="fill:#ecd6b0;fill-opacity:1;stroke:none;stroke-width:0.063953"
           d="m 282.31659,-90.3069 c 3.95693,4.155172 7.02798,5.886495 10.33527,5.886495 3.83882,0 6.20117,-1.385058 10.63057,-6.23276 3.54352,-3.878163 4.07505,-4.224427 4.84281,-3.254887 0.70871,0.831035 7.45518,21.937939 8.282,25.954607 l -23.63726,0.5 -23.27257,-0.5 c 0.17717,-0.554024 2.01144,-7.256324 4.01943,-14.181614 4.19317,-14.266096 3.54352,-13.64282 8.79975,-8.171841 z"
           id="path82"
           sodipodi:nodetypes="csscccccc" /><path
           style="fill:#ffd5d5;stroke:none;stroke-width:0.0590587"
           d="m 296.90409,-99.824588 c 1.88988,1.417408 4.25223,3.307286 5.19717,4.134108 l 1.77176,1.476469 -2.95294,2.7167 c -3.18917,2.893877 -6.02399,4.370343 -8.50445,4.370343 -2.77576,0 -11.10304,-6.083046 -10.57151,-7.677631 0.29529,-1.003997 9.50845,-7.618571 10.63057,-7.677631 0.53153,0 2.48046,1.18117 4.4294,2.657642 z"
           id="path81" /><path
           style="fill:#ecd6b0;fill-opacity:1;stroke:none;stroke-width:0.0590587"
           d="m 305.94007,-116.36103 c 2.36235,1.24024 4.07505,3.83882 4.7247,7.38234 1.06305,5.49246 -0.64965,10.335275 -4.25223,12.343272 -1.53552,0.885881 -1.7127,0.767763 -5.84681,-2.007997 -4.60658,-3.189165 -5.84681,-5.138105 -5.84681,-8.976925 0,-2.95293 2.18517,-6.49645 5.07905,-8.20916 2.65764,-1.65364 3.77975,-1.7127 6.1421,-0.53153 z"
           id="path80" /><path
           style="fill:#ecd6b0;fill-opacity:1;stroke:none;stroke-width:0.0590587"
           d="m 284.91517,-116.42013 c 4.37035,1.83082 7.20516,8.91786 4.84282,12.28421 -1.47647,2.06706 -8.79975,8.150102 -9.86281,8.150102 -1.65364,0 -3.95693,-2.303289 -5.01999,-5.019992 -2.00799,-5.31528 0.23624,-12.8748 4.48847,-15.17808 2.48046,-1.2993 3.01199,-1.2993 5.55151,-0.23624 z"
           id="path79" /><path
           style="opacity:1;fill:#f69031;fill-opacity:1;stroke:none;stroke-width:1;stroke-dasharray:none"
           d="m 292.47469,-102.48227 c 0.94137,4e-5 3.14994,1.64345 6.45425,4.212894 3.3043,2.569482 4.94408,4.055325 4.94408,4.055325 -3.80916,3.466728 -6.94669,7.30087 -11.98656,7.087043 -3.81905,-1.07278 -7.87325,-3.887605 -10.57151,-7.677631 3.53263,-2.940332 9.70025,-7.677691 11.15974,-7.677631 z"
           id="path78"
           sodipodi:nodetypes="szcccs" /><path
           d="m 285.13116,-94.365679 c -1.58798,-0.733237 -0.35307,1.61465 2.28934,2.442708 2.00448,0.57691 2.61038,0.562348 3.50542,0.614052 1.54181,0.08907 6.43214,0.430704 8.69845,-1.698007 2.23665,-2.100849 0.0933,-0.683905 -5.9404,-0.780274 -3.88469,0 -6.8602,-0.240719 -8.55281,-0.578479 z"
           id="path5"
           style="fill:#b84e1d;fill-opacity:0.509804;stroke:none;stroke-width:0.0892475"
           sodipodi:nodetypes="ccsscc" /><g
           id="g78"
           style="fill:#000000"><path
             d="m 300.62479,-108.4472 c -1.1727,1.3634 -0.70871,3.89787 0.47247,5.37434 0.94494,1.12211 1.29929,1.24023 2.36235,0.64964 1.83082,-1.00399 1.50653,-4.78585 0,-6.20116 -0.69004,-0.64826 -2.21743,-0.54061 -2.83482,0.17718 z"
             id="path4"
             style="fill:#000000;stroke:none;stroke-width:0.0590587"
             sodipodi:nodetypes="accaa" /><path
             d="m 284.69541,-108.4472 c 1.1727,1.3634 0.70871,3.89787 -0.47247,5.37434 -0.94494,1.12211 -1.29929,1.24023 -2.36235,0.64964 -1.83082,-1.00399 -1.50653,-4.78585 0,-6.20116 0.69004,-0.64826 2.21743,-0.54061 2.83482,0.17718 z"
             id="path83"
             style="fill:#000000;stroke:none;stroke-width:0.0590587"
             sodipodi:nodetypes="accaa" /></g></g><g
         id="g90"
         transform="translate(0,-0.52916667)"><rect
           style="fill:#000000;fill-opacity:1;stroke:none;stroke-width:0.205735;stroke-dasharray:none;stroke-opacity:1"
           id="rect4"
           width="28"
           height="17"
           x="3.0383"
           y="109.04295"
           ry="1.8438243" /><rect
           style="fill:#363e40;fill-opacity:1;stroke-width:0.0630697"
           id="rect2"
           width="26.00901"
           height="3.1405356"
           x="4.0337958"
           y="110.10537"
           ry="0.94896179" /><rect
           style="fill:#f69031;fill-opacity:1;stroke-width:0.0131317"
           id="rect1"
           width="1.8787738"
           height="1.8847382"
           x="4.8340673"
           y="110.73328"
           ry="0.9423691" /><rect
           style="fill:#f6dfb7;fill-opacity:1;stroke-width:0.0131317"
           id="rect3"
           width="1.8787738"
           height="1.8847382"
           x="7.5740881"
           y="110.73328"
           ry="0.9423691" /><g
           id="g86"
           transform="matrix(0.15436281,0,0,0.15485285,-32.206017,120.35702)"><path
             id="path86"
             style="opacity:1;fill:#ecd6b0;fill-opacity:1;stroke:none;stroke-width:1;stroke-dasharray:none"
             d="m 266.26827,-21.04549 -19.71682,19.73512 -6.59673,-6.578366 13.15678,-13.156754 m 13.16594,-2.1e-5 -19.71682,-19.73512 -6.59673,6.578366 13.15678,13.156754" /><rect
             style="opacity:1;fill:#ecd6b0;fill-opacity:1;stroke:none;stroke-width:1;stroke-dasharray:none"
             id="rect86"
             width="19.042587"
             height="6.1260748"
             x="266.27744"
             y="-7.4364448" /></g></g></g></g></svg>
