<?xml version="1.0" encoding="UTF-8" standalone="no"?>
<!-- Created with Inkscape (http://www.inkscape.org/) -->

<svg
   width="128"
   height="128"
   viewBox="0 0 33.866667 33.866666"
   version="1.1"
   id="svg1"
   xml:space="preserve"
   inkscape:version="1.4.2 (ebf0e940d0, 2025-05-08)"
   sodipodi:docname="linuxtoys.svg"
   inkscape:export-filename="linuxtoys-36px.png"
   inkscape:export-xdpi="27"
   inkscape:export-ydpi="27"
   xmlns:inkscape="http://www.inkscape.org/namespaces/inkscape"
   xmlns:sodipodi="http://sodipodi.sourceforge.net/DTD/sodipodi-0.dtd"
   xmlns:xlink="http://www.w3.org/1999/xlink"
   xmlns="http://www.w3.org/2000/svg"
   xmlns:svg="http://www.w3.org/2000/svg"><sodipodi:namedview
     id="namedview1"
     pagecolor="#505050"
     bordercolor="#eeeeee"
     borderopacity="1"
     inkscape:showpageshadow="0"
     inkscape:pageopacity="0"
     inkscape:pagecheckerboard="0"
     inkscape:deskcolor="#505050"
     inkscape:document-units="mm"
     showguides="false"
     inkscape:zoom="5.6568543"
     inkscape:cx="51.000076"
     inkscape:cy="78.488852"
     inkscape:window-width="1920"
     inkscape:window-height="1043"
     inkscape:window-x="0"
     inkscape:window-y="0"
     inkscape:window-maximized="1"
     inkscape:current-layer="g130"><sodipodi:guide
       position="45.7875,-180.34047"
       orientation="1,0"
       id="guide36"
       inkscape:locked="false" /><sodipodi:guide
       position="78.61074,-143.66833"
       orientation="0,-1"
       id="guide38"
       inkscape:locked="false" /><sodipodi:guide
       position="83.428766,-171.18499"
       orientation="0,-1"
       id="guide39"
       inkscape:locked="false" /><sodipodi:guide
       position="69.670433,-162.34523"
       orientation="1,0"
       id="guide40"
       inkscape:locked="false" /><sodipodi:guide
       position="97.187099,-162.34523"
       orientation="1,0"
       id="guide41"
       inkscape:locked="false" /><sodipodi:guide
       position="65.128323,-174.73018"
       orientation="1,0"
       id="guide117"
       inkscape:locked="false" /><sodipodi:guide
       position="65.128323,-174.73018"
       orientation="1,0"
       id="guide118"
       inkscape:locked="false" /><sodipodi:guide
       position="79.065177,-156.95102"
       orientation="1,0"
       id="guide119"
       inkscape:locked="false" /><sodipodi:guide
       position="83.519842,-144.12779"
       orientation="1,0"
       id="guide120"
       inkscape:locked="false" /><sodipodi:guide
       position="87.904751,-152.35963"
       orientation="1,0"
       id="guide121"
       inkscape:locked="false" /><sodipodi:guide
       position="142.3125,-151.08244"
       orientation="0,-1"
       id="guide122"
       inkscape:locked="false" /><sodipodi:guide
       position="71.257925,-159.88684"
       orientation="1,0"
       id="guide123"
       inkscape:locked="false" /><sodipodi:guide
       position="72.361927,-160.64048"
       orientation="0,-1"
       id="guide124"
       inkscape:locked="false" /><sodipodi:guide
       position="95.550598,-159.4155"
       orientation="1,0"
       id="guide125"
       inkscape:locked="false" /><sodipodi:guide
       position="72.469679,-159.07021"
       orientation="1,0"
       id="guide126"
       inkscape:locked="false" /><sodipodi:guide
       position="135.22966,-147.60863"
       orientation="1,0"
       id="guide148"
       inkscape:locked="false" /></sodipodi:namedview><defs
     id="defs1"><linearGradient
       id="swatch165"
       inkscape:swatch="solid"><stop
         style="stop-color:#dcdcdc;stop-opacity:1;"
         offset="0"
         id="stop165" /></linearGradient><linearGradient
       id="linearGradient3010"><stop
         style="stop-color:#2e3436;stop-opacity:1"
         offset="0"
         id="stop3012" /><stop
         style="stop-color:#2e3436;stop-opacity:0;"
         offset="1"
         id="stop3014" /></linearGradient><linearGradient
       id="linearGradient3002"><stop
         style="stop-color:#888a85;stop-opacity:1"
         offset="0"
         id="stop3004" /><stop
         style="stop-color:#555753;stop-opacity:1"
         offset="1"
         id="stop3006" /></linearGradient><linearGradient
       id="linearGradient2865"><stop
         style="stop-color:#73d216;stop-opacity:1"
         offset="0"
         id="stop2867" /><stop
         style="stop-color:#4e9a06;stop-opacity:1"
         offset="1"
         id="stop2869" /></linearGradient><linearGradient
       id="linearGradient2843"><stop
         style="stop-color:black;stop-opacity:1"
         offset="0"
         id="stop2845" /><stop
         style="stop-color:#2e3436;stop-opacity:1;"
         offset="1"
         id="stop2847" /></linearGradient><linearGradient
       id="linearGradient2835"><stop
         style="stop-color:black;stop-opacity:1;"
         offset="0"
         id="stop2837" /><stop
         style="stop-color:white;stop-opacity:0.2987805;"
         offset="1"
         id="stop2839" /></linearGradient><linearGradient
       id="linearGradient5060"
       inkscape:collect="always"><stop
         id="stop5062"
         offset="0"
         style="stop-color:black;stop-opacity:1;" /><stop
         id="stop5064"
         offset="1"
         style="stop-color:black;stop-opacity:0;" /></linearGradient><linearGradient
       id="linearGradient5048"><stop
         id="stop5050"
         offset="0"
         style="stop-color:black;stop-opacity:0;" /><stop
         style="stop-color:black;stop-opacity:1;"
         offset="0.5"
         id="stop5056" /><stop
         id="stop5052"
         offset="1"
         style="stop-color:black;stop-opacity:0;" /></linearGradient><inkscape:perspective
       sodipodi:type="inkscape:persp3d"
       inkscape:vp_x="0 : -239.13333 : 1"
       inkscape:vp_y="0 : 999.99996 : 0"
       inkscape:vp_z="48.000001 : -239.13333 : 1"
       inkscape:persp3d-origin="24.000001 : -247.13333 : 1"
       id="perspective79" /><linearGradient
       id="linearGradient4254"><stop
         style="stop-color:#616161;stop-opacity:1.0000000;"
         offset="0.0000000"
         id="stop4256" /><stop
         style="stop-color:#a0a0a0;stop-opacity:1.0000000;"
         offset="1.0000000"
         id="stop4258" /></linearGradient><linearGradient
       id="linearGradient5176"><stop
         id="stop5178"
         offset="0.0000000"
         style="stop-color:#a2a59c;stop-opacity:1.0000000;" /><stop
         id="stop5180"
         offset="1.0000000"
         style="stop-color:#535750;stop-opacity:1.0000000;" /></linearGradient><linearGradient
       id="linearGradient2667"><stop
         id="stop2669"
         offset="0.0000000"
         style="stop-color:#ffffff;stop-opacity:1.0000000;" /><stop
         id="stop2671"
         offset="1.0000000"
         style="stop-color:#fcfcff;stop-opacity:0.0000000;" /></linearGradient><linearGradient
       id="linearGradient2224"><stop
         style="stop-color:#32342f;stop-opacity:0.54639173;"
         offset="0.0000000"
         id="stop2226" /><stop
         style="stop-color:#32342f;stop-opacity:0;"
         offset="1"
         id="stop2228" /></linearGradient><linearGradient
       id="linearGradient2214"><stop
         style="stop-color:#a9aaa7;stop-opacity:1.0000000;"
         offset="0.0000000"
         id="stop2216" /><stop
         style="stop-color:#676964;stop-opacity:1.0000000;"
         offset="1.0000000"
         id="stop2218" /></linearGradient><linearGradient
       id="linearGradient2206"><stop
         style="stop-color:#777973;stop-opacity:1.0000000;"
         offset="0.0000000"
         id="stop2208" /><stop
         style="stop-color:#cbccca;stop-opacity:1.0000000;"
         offset="1.0000000"
         id="stop2210" /></linearGradient><linearGradient
       id="linearGradient2198"><stop
         style="stop-color:#748f48;stop-opacity:1.0000000;"
         offset="0.0000000"
         id="stop2200" /><stop
         style="stop-color:#1f2816;stop-opacity:1.0000000;"
         offset="1.0000000"
         id="stop2202" /></linearGradient><radialGradient
       inkscape:collect="always"
       xlink:href="#linearGradient2224"
       id="radialGradient2230"
       cx="24.04163"
       cy="42.24213"
       fx="24.04163"
       fy="42.24213"
       r="17.576654"
       gradientTransform="matrix(1,0,0,0.304598,0,29.37527)"
       gradientUnits="userSpaceOnUse" /><linearGradient
       id="linearGradient14755"><stop
         id="stop14757"
         offset="0"
         style="stop-color:#ef2929;stop-opacity:1;" /><stop
         id="stop14759"
         offset="1"
         style="stop-color:#c00;stop-opacity:1;" /></linearGradient><linearGradient
       id="linearGradient4344"><stop
         style="stop-color:#727e0a;stop-opacity:1;"
         offset="0"
         id="stop4346" /><stop
         style="stop-color:#5b6508;stop-opacity:1.0000000;"
         offset="1.0000000"
         id="stop4348" /></linearGradient><linearGradient
       id="linearGradient4338"><stop
         id="stop4340"
         offset="0.0000000"
         style="stop-color:#e9b15e;stop-opacity:1.0000000;" /><stop
         id="stop4342"
         offset="1.0000000"
         style="stop-color:#966416;stop-opacity:1.0000000;" /></linearGradient><linearGradient
       id="linearGradient4163"><stop
         style="stop-color:#3b74bc;stop-opacity:1.0000000;"
         offset="0.0000000"
         id="stop4165" /><stop
         style="stop-color:#2d5990;stop-opacity:1.0000000;"
         offset="1.0000000"
         id="stop4167" /></linearGradient><linearGradient
       id="linearGradient3824"><stop
         style="stop-color:#ffffff;stop-opacity:1;"
         offset="0"
         id="stop3826" /><stop
         style="stop-color:#c9c9c9;stop-opacity:1.0000000;"
         offset="1.0000000"
         id="stop3828" /></linearGradient><linearGradient
       id="linearGradient3800"><stop
         style="stop-color:#f4d9b1;stop-opacity:1.0000000;"
         offset="0.0000000"
         id="stop3802" /><stop
         style="stop-color:#df9725;stop-opacity:1.0000000;"
         offset="1.0000000"
         id="stop3804" /></linearGradient><radialGradient
       inkscape:collect="always"
       xlink:href="#linearGradient3800"
       id="radialGradient3806"
       cx="29.344931"
       cy="17.064077"
       fx="29.344931"
       fy="17.064077"
       r="9.1620579"
       gradientUnits="userSpaceOnUse" /><linearGradient
       inkscape:collect="always"
       xlink:href="#linearGradient3824"
       id="linearGradient4175"
       gradientUnits="userSpaceOnUse"
       x1="30.935921"
       y1="29.553486"
       x2="30.935921"
       y2="35.803486"
       gradientTransform="translate(0.707108)" /><linearGradient
       inkscape:collect="always"
       xlink:href="#linearGradient3824"
       id="linearGradient4326"
       gradientUnits="userSpaceOnUse"
       gradientTransform="translate(-12.41789,-7)"
       x1="30.935921"
       y1="29.553486"
       x2="30.935921"
       y2="35.803486" /><linearGradient
       inkscape:collect="always"
       xlink:href="#linearGradient3824"
       id="linearGradient4332"
       gradientUnits="userSpaceOnUse"
       x1="30.935921"
       y1="29.553486"
       x2="30.935921"
       y2="35.803486"
       gradientTransform="translate(-13.125,-7)" /><radialGradient
       inkscape:collect="always"
       xlink:href="#linearGradient4344"
       id="radialGradient4350"
       cx="16.214741"
       cy="19.836468"
       fx="16.214741"
       fy="19.836468"
       r="13.56536"
       gradientTransform="matrix(1,0,0,0.681917,0,8.233773)"
       gradientUnits="userSpaceOnUse" /><linearGradient
       inkscape:collect="always"
       xlink:href="#linearGradient5060"
       id="linearGradient4372"
       gradientUnits="userSpaceOnUse"
       gradientTransform="rotate(10.462267,50.119816,-43.534606)"
       x1="20.661695"
       y1="35.817974"
       x2="22.626925"
       y2="36.217758" /><linearGradient
       inkscape:collect="always"
       xlink:href="#linearGradient5060"
       id="linearGradient4374"
       gradientUnits="userSpaceOnUse"
       gradientTransform="matrix(-0.977685,0.210075,0.210075,0.977685,41.80576,-11.11866)"
       x1="22.686766"
       y1="36.3904"
       x2="21.408455"
       y2="35.739632" /><radialGradient
       inkscape:collect="always"
       xlink:href="#linearGradient5060"
       id="radialGradient1947"
       gradientUnits="userSpaceOnUse"
       cx="31.112698"
       cy="19.008621"
       fx="31.112698"
       fy="19.008621"
       r="8.6620579" /><radialGradient
       inkscape:collect="always"
       xlink:href="#linearGradient4163"
       id="radialGradient1949"
       gradientUnits="userSpaceOnUse"
       gradientTransform="matrix(1.297564,0,0,0.884831,-8.358505,4.940469)"
       cx="28.089741"
       cy="27.203083"
       fx="28.089741"
       fy="27.203083"
       r="13.56536" /><radialGradient
       inkscape:collect="always"
       xlink:href="#linearGradient5060"
       id="radialGradient1953"
       gradientUnits="userSpaceOnUse"
       cx="31.112698"
       cy="19.008621"
       fx="31.112698"
       fy="19.008621"
       r="8.6620579" /><radialGradient
       inkscape:collect="always"
       xlink:href="#linearGradient3800"
       id="radialGradient1955"
       gradientUnits="userSpaceOnUse"
       gradientTransform="matrix(0.787998,0,0,0.787998,6.221198,3.617627)"
       cx="29.344931"
       cy="17.064077"
       fx="29.344931"
       fy="17.064077"
       r="9.1620579" /><linearGradient
       inkscape:collect="always"
       xlink:href="#linearGradient5060"
       id="linearGradient1959"
       gradientUnits="userSpaceOnUse"
       gradientTransform="matrix(-0.977685,0.210075,0.210075,0.977685,55.1096,-3.945209)"
       x1="22.686766"
       y1="36.3904"
       x2="21.408455"
       y2="35.739632" /><radialGradient
       inkscape:collect="always"
       xlink:href="#linearGradient5060"
       id="radialGradient1985"
       gradientUnits="userSpaceOnUse"
       cx="31.112698"
       cy="19.008621"
       fx="31.112698"
       fy="19.008621"
       r="8.6620579" /><radialGradient
       inkscape:collect="always"
       xlink:href="#linearGradient5060"
       id="radialGradient1991"
       gradientUnits="userSpaceOnUse"
       cx="31.112698"
       cy="19.008621"
       fx="31.112698"
       fy="19.008621"
       r="8.6620579" /><radialGradient
       inkscape:collect="always"
       xlink:href="#linearGradient3800"
       id="radialGradient1993"
       gradientUnits="userSpaceOnUse"
       gradientTransform="matrix(0.787998,0,0,0.787998,6.221198,3.617627)"
       cx="29.344931"
       cy="17.064077"
       fx="29.344931"
       fy="17.064077"
       r="9.1620579" /><linearGradient
       inkscape:collect="always"
       xlink:href="#linearGradient5060"
       id="linearGradient2000"
       gradientUnits="userSpaceOnUse"
       gradientTransform="matrix(-0.628048,0.134949,0.134949,0.628048,49.37052,7.532295)"
       x1="22.686766"
       y1="36.3904"
       x2="21.408455"
       y2="35.739632" /><linearGradient
       inkscape:collect="always"
       xlink:href="#linearGradient5060"
       id="linearGradient2003"
       gradientUnits="userSpaceOnUse"
       gradientTransform="matrix(0.631703,0.116649,-0.116649,0.631703,17.9722,8.363373)"
       x1="20.661695"
       y1="35.817974"
       x2="22.626925"
       y2="36.217758" /><linearGradient
       inkscape:collect="always"
       xlink:href="#linearGradient3824"
       id="linearGradient2012"
       gradientUnits="userSpaceOnUse"
       x1="30.935921"
       y1="29.553486"
       x2="30.935921"
       y2="35.803486"
       gradientTransform="matrix(0.642383,0,0,0.642383,13.96905,10.06663)" /><radialGradient
       inkscape:collect="always"
       xlink:href="#linearGradient4163"
       id="radialGradient2015"
       gradientUnits="userSpaceOnUse"
       gradientTransform="matrix(0.833533,0,0,0.5684,8.599688,13.2403)"
       cx="28.089741"
       cy="27.203083"
       fx="28.089741"
       fy="27.203083"
       r="13.56536" /><radialGradient
       inkscape:collect="always"
       xlink:href="#linearGradient5060"
       id="radialGradient13644"
       gradientUnits="userSpaceOnUse"
       cx="31.112698"
       cy="19.008621"
       fx="31.112698"
       fy="19.008621"
       r="8.6620579" /><radialGradient
       inkscape:collect="always"
       xlink:href="#linearGradient4163"
       id="radialGradient13646"
       gradientUnits="userSpaceOnUse"
       gradientTransform="matrix(1.297564,0,0,0.884831,-8.358505,4.940469)"
       cx="28.089741"
       cy="27.203083"
       fx="28.089741"
       fy="27.203083"
       r="13.56536" /><radialGradient
       inkscape:collect="always"
       xlink:href="#linearGradient5060"
       id="radialGradient13650"
       gradientUnits="userSpaceOnUse"
       cx="31.112698"
       cy="19.008621"
       fx="31.112698"
       fy="19.008621"
       r="8.6620579" /><radialGradient
       inkscape:collect="always"
       xlink:href="#linearGradient3800"
       id="radialGradient13652"
       gradientUnits="userSpaceOnUse"
       gradientTransform="matrix(0.787998,0,0,0.787998,6.221198,3.617627)"
       cx="29.344931"
       cy="17.064077"
       fx="29.344931"
       fy="17.064077"
       r="9.1620579" /><radialGradient
       inkscape:collect="always"
       xlink:href="#linearGradient5060"
       id="radialGradient13658"
       gradientUnits="userSpaceOnUse"
       cx="31.112698"
       cy="19.008621"
       fx="31.112698"
       fy="19.008621"
       r="8.6620579" /><radialGradient
       inkscape:collect="always"
       xlink:href="#linearGradient4163"
       id="radialGradient13660"
       gradientUnits="userSpaceOnUse"
       gradientTransform="matrix(0.833533,0,0,0.5684,8.599688,13.2403)"
       cx="28.089741"
       cy="27.203083"
       fx="28.089741"
       fy="27.203083"
       r="13.56536" /><radialGradient
       inkscape:collect="always"
       xlink:href="#linearGradient5060"
       id="radialGradient13664"
       gradientUnits="userSpaceOnUse"
       cx="31.112698"
       cy="19.008621"
       fx="31.112698"
       fy="19.008621"
       r="8.6620579" /><radialGradient
       inkscape:collect="always"
       xlink:href="#linearGradient3800"
       id="radialGradient13666"
       gradientUnits="userSpaceOnUse"
       gradientTransform="matrix(0.787998,0,0,0.787998,6.221198,3.617627)"
       cx="29.344931"
       cy="17.064077"
       fx="29.344931"
       fy="17.064077"
       r="9.1620579" /><radialGradient
       inkscape:collect="always"
       xlink:href="#linearGradient5060"
       id="radialGradient13793"
       gradientUnits="userSpaceOnUse"
       cx="31.112698"
       cy="19.008621"
       fx="31.112698"
       fy="19.008621"
       r="8.6620579" /><radialGradient
       inkscape:collect="always"
       xlink:href="#linearGradient4163"
       id="radialGradient13795"
       gradientUnits="userSpaceOnUse"
       gradientTransform="matrix(0.833533,0,0,0.5684,8.599688,13.2403)"
       cx="28.089741"
       cy="27.203083"
       fx="28.089741"
       fy="27.203083"
       r="13.56536" /><radialGradient
       inkscape:collect="always"
       xlink:href="#linearGradient5060"
       id="radialGradient13799"
       gradientUnits="userSpaceOnUse"
       cx="31.112698"
       cy="19.008621"
       fx="31.112698"
       fy="19.008621"
       r="8.6620579" /><radialGradient
       inkscape:collect="always"
       xlink:href="#linearGradient3800"
       id="radialGradient13801"
       gradientUnits="userSpaceOnUse"
       gradientTransform="matrix(0.787998,0,0,0.787998,6.221198,3.617627)"
       cx="29.344931"
       cy="17.064077"
       fx="29.344931"
       fy="17.064077"
       r="9.1620579" /><radialGradient
       inkscape:collect="always"
       xlink:href="#linearGradient4163"
       id="radialGradient13839"
       gradientUnits="userSpaceOnUse"
       gradientTransform="matrix(0.833533,0,0,0.5684,8.599688,13.2403)"
       cx="28.089741"
       cy="27.203083"
       fx="28.089741"
       fy="27.203083"
       r="13.56536" /><linearGradient
       inkscape:collect="always"
       xlink:href="#linearGradient5060"
       id="linearGradient13852"
       gradientUnits="userSpaceOnUse"
       gradientTransform="matrix(-0.52266,0.112304,0.112304,0.52266,46.22935,11.59304)"
       x1="22.686766"
       y1="36.3904"
       x2="21.408455"
       y2="35.739632" /><linearGradient
       inkscape:collect="always"
       xlink:href="#linearGradient5060"
       id="linearGradient13855"
       gradientUnits="userSpaceOnUse"
       gradientTransform="matrix(0.525702,0.09707506,-0.09707506,0.525702,20.09973,12.28466)"
       x1="20.661695"
       y1="35.817974"
       x2="22.626925"
       y2="36.217758" /><linearGradient
       inkscape:collect="always"
       xlink:href="#linearGradient3824"
       id="linearGradient13864"
       gradientUnits="userSpaceOnUse"
       gradientTransform="matrix(0.53459,0,0,0.53459,16.76832,13.7021)"
       x1="30.935921"
       y1="29.553486"
       x2="30.935921"
       y2="35.803486" /><radialGradient
       r="13.56536"
       fy="27.203083"
       fx="28.089741"
       cy="27.203083"
       cx="28.089741"
       gradientTransform="matrix(0.693664,0,0,0.473021,12.29994,16.34323)"
       gradientUnits="userSpaceOnUse"
       id="radialGradient13867"
       xlink:href="#linearGradient14755"
       inkscape:collect="always" /><radialGradient
       r="9.1620579"
       fy="17.064077"
       fx="29.344931"
       cy="17.064077"
       cx="29.344931"
       gradientTransform="matrix(0.787998,0,0,0.787998,6.221198,3.617627)"
       gradientUnits="userSpaceOnUse"
       id="radialGradient13845"
       xlink:href="#linearGradient3800"
       inkscape:collect="always" /><radialGradient
       r="8.6620579"
       fy="19.008621"
       fx="31.112698"
       cy="19.008621"
       cx="31.112698"
       gradientUnits="userSpaceOnUse"
       id="radialGradient13843"
       xlink:href="#linearGradient5060"
       inkscape:collect="always" /><radialGradient
       r="13.56536"
       fy="27.203083"
       fx="28.089741"
       cy="27.203083"
       cx="28.089741"
       gradientTransform="matrix(0.833533,0,0,0.5684,8.599688,13.2403)"
       gradientUnits="userSpaceOnUse"
       id="radialGradient13839-0"
       xlink:href="#linearGradient4163"
       inkscape:collect="always" /><radialGradient
       r="8.6620579"
       fy="19.008621"
       fx="31.112698"
       cy="19.008621"
       cx="31.112698"
       gradientUnits="userSpaceOnUse"
       id="radialGradient13837"
       xlink:href="#linearGradient5060"
       inkscape:collect="always" /><radialGradient
       r="9.1620579"
       fy="17.064077"
       fx="29.344931"
       cy="17.064077"
       cx="29.344931"
       gradientTransform="matrix(0.787998,0,0,0.787998,6.221198,3.617627)"
       gradientUnits="userSpaceOnUse"
       id="radialGradient13801-5"
       xlink:href="#linearGradient3800"
       inkscape:collect="always" /><radialGradient
       r="8.6620579"
       fy="19.008621"
       fx="31.112698"
       cy="19.008621"
       cx="31.112698"
       gradientUnits="userSpaceOnUse"
       id="radialGradient13799-0"
       xlink:href="#linearGradient5060"
       inkscape:collect="always" /><radialGradient
       r="13.56536"
       fy="27.203083"
       fx="28.089741"
       cy="27.203083"
       cx="28.089741"
       gradientTransform="matrix(0.833533,0,0,0.5684,8.599688,13.2403)"
       gradientUnits="userSpaceOnUse"
       id="radialGradient13795-8"
       xlink:href="#linearGradient4163"
       inkscape:collect="always" /><radialGradient
       r="8.6620579"
       fy="19.008621"
       fx="31.112698"
       cy="19.008621"
       cx="31.112698"
       gradientUnits="userSpaceOnUse"
       id="radialGradient13793-1"
       xlink:href="#linearGradient5060"
       inkscape:collect="always" /><radialGradient
       r="9.1620579"
       fy="17.064077"
       fx="29.344931"
       cy="17.064077"
       cx="29.344931"
       gradientTransform="matrix(0.787998,0,0,0.787998,6.221198,3.617627)"
       gradientUnits="userSpaceOnUse"
       id="radialGradient13666-5"
       xlink:href="#linearGradient3800"
       inkscape:collect="always" /><radialGradient
       r="8.6620579"
       fy="19.008621"
       fx="31.112698"
       cy="19.008621"
       cx="31.112698"
       gradientUnits="userSpaceOnUse"
       id="radialGradient13664-9"
       xlink:href="#linearGradient5060"
       inkscape:collect="always" /><radialGradient
       r="13.56536"
       fy="27.203083"
       fx="28.089741"
       cy="27.203083"
       cx="28.089741"
       gradientTransform="matrix(0.833533,0,0,0.5684,8.599688,13.2403)"
       gradientUnits="userSpaceOnUse"
       id="radialGradient13660-3"
       xlink:href="#linearGradient4163"
       inkscape:collect="always" /><radialGradient
       r="8.6620579"
       fy="19.008621"
       fx="31.112698"
       cy="19.008621"
       cx="31.112698"
       gradientUnits="userSpaceOnUse"
       id="radialGradient13658-3"
       xlink:href="#linearGradient5060"
       inkscape:collect="always" /><radialGradient
       r="9.1620579"
       fy="17.064077"
       fx="29.344931"
       cy="17.064077"
       cx="29.344931"
       gradientTransform="matrix(0.787998,0,0,0.787998,6.221198,3.617627)"
       gradientUnits="userSpaceOnUse"
       id="radialGradient13652-8"
       xlink:href="#linearGradient3800"
       inkscape:collect="always" /><radialGradient
       r="8.6620579"
       fy="19.008621"
       fx="31.112698"
       cy="19.008621"
       cx="31.112698"
       gradientUnits="userSpaceOnUse"
       id="radialGradient13650-5"
       xlink:href="#linearGradient5060"
       inkscape:collect="always" /><radialGradient
       r="13.56536"
       fy="27.203083"
       fx="28.089741"
       cy="27.203083"
       cx="28.089741"
       gradientTransform="matrix(1.297564,0,0,0.884831,-8.358505,4.940469)"
       gradientUnits="userSpaceOnUse"
       id="radialGradient13646-3"
       xlink:href="#linearGradient4163"
       inkscape:collect="always" /><radialGradient
       r="8.6620579"
       fy="19.008621"
       fx="31.112698"
       cy="19.008621"
       cx="31.112698"
       gradientUnits="userSpaceOnUse"
       id="radialGradient13644-1"
       xlink:href="#linearGradient5060"
       inkscape:collect="always" /><radialGradient
       r="13.56536"
       fy="27.203083"
       fx="28.089741"
       cy="27.203083"
       cx="28.089741"
       gradientTransform="matrix(0.833533,0,0,0.5684,8.599688,13.2403)"
       gradientUnits="userSpaceOnUse"
       id="radialGradient2015-9"
       xlink:href="#linearGradient4163"
       inkscape:collect="always" /><radialGradient
       r="9.1620579"
       fy="17.064077"
       fx="29.344931"
       cy="17.064077"
       cx="29.344931"
       gradientTransform="matrix(0.787998,0,0,0.787998,6.221198,3.617627)"
       gradientUnits="userSpaceOnUse"
       id="radialGradient1993-1"
       xlink:href="#linearGradient3800"
       inkscape:collect="always" /><radialGradient
       r="8.6620579"
       fy="19.008621"
       fx="31.112698"
       cy="19.008621"
       cx="31.112698"
       gradientUnits="userSpaceOnUse"
       id="radialGradient1991-2"
       xlink:href="#linearGradient5060"
       inkscape:collect="always" /><radialGradient
       r="8.6620579"
       fy="19.008621"
       fx="31.112698"
       cy="19.008621"
       cx="31.112698"
       gradientUnits="userSpaceOnUse"
       id="radialGradient1985-5"
       xlink:href="#linearGradient5060"
       inkscape:collect="always" /><radialGradient
       r="9.1620579"
       fy="17.064077"
       fx="29.344931"
       cy="17.064077"
       cx="29.344931"
       gradientTransform="matrix(0.787998,0,0,0.787998,6.221198,3.617627)"
       gradientUnits="userSpaceOnUse"
       id="radialGradient1955-3"
       xlink:href="#linearGradient3800"
       inkscape:collect="always" /><radialGradient
       r="8.6620579"
       fy="19.008621"
       fx="31.112698"
       cy="19.008621"
       cx="31.112698"
       gradientUnits="userSpaceOnUse"
       id="radialGradient1953-6"
       xlink:href="#linearGradient5060"
       inkscape:collect="always" /><radialGradient
       r="13.56536"
       fy="27.203083"
       fx="28.089741"
       cy="27.203083"
       cx="28.089741"
       gradientTransform="matrix(1.297564,0,0,0.884831,-8.358505,4.940469)"
       gradientUnits="userSpaceOnUse"
       id="radialGradient1949-4"
       xlink:href="#linearGradient4163"
       inkscape:collect="always" /><radialGradient
       r="8.6620579"
       fy="19.008621"
       fx="31.112698"
       cy="19.008621"
       cx="31.112698"
       gradientUnits="userSpaceOnUse"
       id="radialGradient1947-5"
       xlink:href="#linearGradient5060"
       inkscape:collect="always" /><radialGradient
       gradientUnits="userSpaceOnUse"
       gradientTransform="matrix(1,0,0,0.681917,0,8.233773)"
       r="13.56536"
       fy="19.836468"
       fx="16.214741"
       cy="19.836468"
       cx="16.214741"
       id="radialGradient4350-0"
       xlink:href="#linearGradient4344"
       inkscape:collect="always" /><radialGradient
       gradientUnits="userSpaceOnUse"
       r="9.1620579"
       fy="17.064077"
       fx="29.344931"
       cy="17.064077"
       cx="29.344931"
       id="radialGradient3806-6"
       xlink:href="#linearGradient3800"
       inkscape:collect="always" /><linearGradient
       y2="236"
       x2="96"
       y1="236"
       x1="32"
       gradientTransform="translate(604.81684,170.58641)"
       gradientUnits="userSpaceOnUse"
       id="linearGradient1099"
       xlink:href="#linearGradient1036" /><linearGradient
       id="linearGradient1036"><stop
         id="stop1032"
         offset="0"
         style="stop-color:#d5d3cf;stop-opacity:1;" /><stop
         id="stop1034"
         offset="1"
         style="stop-color:#f6f5f4;stop-opacity:1" /></linearGradient><radialGradient
       r="32"
       fy="-76"
       fx="-244"
       cy="-76"
       cx="-244"
       gradientTransform="matrix(0.88333331,0,0,0.88333331,-460.35018,463.11973)"
       gradientUnits="userSpaceOnUse"
       id="radialGradient1103"
       xlink:href="#linearGradient1069" /><linearGradient
       id="linearGradient1069"><stop
         id="stop1065"
         offset="0"
         style="stop-color:#d5d3cf;stop-opacity:1" /><stop
         id="stop1067-1"
         offset="1"
         style="stop-color:#949390;stop-opacity:1" /></linearGradient><linearGradient
       gradientUnits="userSpaceOnUse"
       y2="232"
       x2="64"
       y1="262.5"
       x1="64"
       id="linearGradient1027"
       xlink:href="#linearGradient1025"
       gradientTransform="translate(-470.5864,432.81685)" /><linearGradient
       id="linearGradient1025"><stop
         id="stop1021"
         offset="0"
         style="stop-color:#9a9996;stop-opacity:1" /><stop
         id="stop1023"
         offset="1"
         style="stop-color:#77767b;stop-opacity:1" /></linearGradient><inkscape:path-effect
       effect="spiro"
       id="path-effect35304-9"
       is_visible="true"
       lpeversion="0" /><clipPath
       clipPathUnits="userSpaceOnUse"
       id="clipPath1609-7"><path
         sodipodi:nodetypes="cccccc"
         inkscape:connector-curvature="0"
         id="path1611-5"
         d="m 252,116 28,-28 v -8 h -36 v 36 z"
         style="fill:#e74747;stroke:none;stroke-width:0.25px;stroke-linecap:butt;stroke-linejoin:miter;stroke-opacity:1" /></clipPath><radialGradient
       r="32"
       fy="-76"
       fx="-244"
       cy="-76"
       cx="-244"
       gradientTransform="matrix(0.88333331,0,0,0.88333331,-460.35018,463.11973)"
       gradientUnits="userSpaceOnUse"
       id="radialGradient1103-9"
       xlink:href="#linearGradient1069" /><inkscape:path-effect
       effect="spiro"
       id="path-effect35304-9-2"
       is_visible="true"
       lpeversion="0" /><clipPath
       clipPathUnits="userSpaceOnUse"
       id="clipPath1609-7-6"><path
         sodipodi:nodetypes="cccccc"
         inkscape:connector-curvature="0"
         id="path1611-5-1"
         d="m 252,116 28,-28 v -8 h -36 v 36 z"
         style="fill:#e74747;stroke:none;stroke-width:0.25px;stroke-linecap:butt;stroke-linejoin:miter;stroke-opacity:1" /></clipPath></defs><g
     inkscape:label="LinuxToys"
     inkscape:groupmode="layer"
     id="layer1"
     sodipodi:insensitive="true"><g
       id="g177"
       inkscape:label="Icone"
       style="display:inline"
       transform="translate(1.3333333e-6,-0.08868478)"
       sodipodi:insensitive="true"><g
         id="g176"
         inkscape:label="Magalhães"
         style="display:inline"
         transform="translate(-118.29616,-146.38926)"
         sodipodi:insensitive="true"><path
           sodipodi:nodetypes="caczcczc"
           id="path137"
           d="m 132.25898,168.07409 c 0,0 1.97978,0.10821 2.97068,0.10938 1.05915,0.001 3.17556,-0.10938 3.17556,-0.10938 1.74143,0 3.46553,-0.63854 4.09749,-2.4585 0.60013,-1.72826 0.10244,-5.01943 -3.79018,-7.6828 h -7.27305 c -3.89262,2.45849 -4.37907,5.82071 -3.48287,7.78524 0.91301,2.00138 2.4585,2.35606 4.30237,2.35606 z"
           style="color:#000000;display:inline;overflow:visible;visibility:visible;fill:#000000;fill-opacity:1;fill-rule:evenodd;stroke:#000000;stroke-width:0.579473px;stroke-linecap:round;stroke-linejoin:round;stroke-miterlimit:4;stroke-dasharray:none;stroke-dashoffset:0;stroke-opacity:1;marker:none"
           inkscape:connector-curvature="0"
           inkscape:label="Corpo"
           sodipodi:insensitive="true" /><circle
           id="circle137"
           style="color:#000000;display:inline;overflow:visible;visibility:visible;fill:#000000;fill-opacity:1;fill-rule:evenodd;stroke:#000000;stroke-width:0.579473px;stroke-linecap:round;stroke-linejoin:round;stroke-miterlimit:4;stroke-dasharray:none;stroke-dashoffset:0;stroke-opacity:1;marker:none"
           cx="135.22966"
           cy="154.96211"
           r="5.0194297"
           inkscape:label="Cabeça"
           sodipodi:insensitive="true" /><path
           style="display:inline;fill:#e5a50a;fill-opacity:1;stroke:none;stroke-width:0.1907;stroke-dasharray:none"
           d="m 135.22966,156.0753 c 0.17924,1e-5 0.51991,0.31391 1.14905,0.80468 0.62913,0.49077 0.94134,0.77457 0.94134,0.77457 -0.55337,0.51996 -1.26027,1.35876 -2.09039,1.35365 -0.88258,-0.005 -1.71432,-0.83369 -2.20462,-1.46645 0.6726,-0.56161 1.92674,-1.46646 2.20462,-1.46645 z"
           id="path143"
           sodipodi:nodetypes="szcacs"
           inkscape:label="Bico"
           sodipodi:insensitive="true" /><path
           d="m 133.75164,157.62559 c -0.30235,-0.14005 -0.0672,0.3084 0.43588,0.46657 0.38165,0.11019 0.49701,0.10741 0.66743,0.11728 0.29356,0.017 1.22467,0.0823 1.65617,-0.32432 0.42585,-0.40127 0.0178,-0.13063 -1.13104,-0.14904 -0.73964,0 -1.30617,-0.046 -1.62844,-0.11049 z"
           id="path144"
           style="display:inline;fill:#e66100;fill-opacity:0.509804;stroke:none;stroke-width:0.0170195"
           sodipodi:nodetypes="ccsscc"
           inkscape:label="Boca"
           sodipodi:insensitive="true" /><path
           id="path142"
           style="display:inline;fill:#f6f5f4;fill-opacity:1;stroke:none;stroke-width:0.0112625"
           d="m 133.71051,153.41313 c 0.83211,0.3497 1.37185,1.70334 0.92207,2.34632 -0.28112,0.39481 -1.67546,1.55669 -1.87786,1.55669 -0.31485,0 -0.7534,-0.43993 -0.9558,-0.95883 -0.38232,-1.01523 0.045,-2.45912 0.85459,-2.89905 0.47228,-0.24817 0.57348,-0.24817 1.057,-0.0451 z m 4.0031,0.0113 c 0.44979,0.23689 0.77589,0.73323 0.89958,1.41005 0.2024,1.04907 -0.12369,1.97406 -0.80962,2.3576 -0.29236,0.1692 -0.32609,0.14664 -1.11322,-0.38354 -0.87708,-0.60914 -1.11322,-0.98139 -1.11322,-1.71461 0,-0.56402 0.41605,-1.24084 0.96704,-1.56797 0.50601,-0.31585 0.71966,-0.32713 1.16944,-0.10153 z"
           inkscape:label="Escleras"
           sodipodi:insensitive="true" /><path
           id="path146"
           style="display:inline;fill:#000000;stroke:none;stroke-width:0.0112625"
           d="m 133.66867,154.93599 c 0.22328,0.26041 0.13494,0.7445 -0.09,1.02651 -0.17991,0.21432 -0.24738,0.23688 -0.44978,0.12408 -0.34859,-0.19176 -0.28684,-0.91411 0,-1.18444 0.13138,-0.12382 0.42219,-0.10325 0.53974,0.0339 z m 3.03292,0 c -0.22328,0.26041 -0.13493,0.7445 0.09,1.02651 0.17992,0.21432 0.24738,0.23688 0.44979,0.12408 0.34858,-0.19176 0.28684,-0.91411 0,-1.18444 -0.13138,-0.12382 -0.4222,-0.10325 -0.53975,0.0339 z"
           inkscape:label="Pupilas"
           sodipodi:insensitive="true" /><path
           id="path163"
           style="color:#000000;display:none;overflow:visible;visibility:visible;opacity:0.227848;fill:#deddda;fill-opacity:1;fill-rule:evenodd;stroke:none;stroke-width:0.579473px;marker:none"
           d="m 140.1894,165.28156 c 0.77686,-0.49963 1.03654,-1.24178 1.03654,-1.24178 -0.55579,-2.3428 -2.29502,-3.88374 -2.29502,-3.88374 0,0 1.42817,3.67537 1.25848,5.12552 z m -10.40119,-0.008 c -0.75153,-0.53697 -0.95737,-0.75201 -0.97466,-1.29091 -0.0482,-1.50295 2.48194,-3.76703 2.48194,-3.76703 0,0 -1.60595,3.60124 -1.50728,5.05794 z"
           inkscape:label="Sombreado"
           sodipodi:insensitive="true" /><path
           id="path175"
           style="display:inline;fill:#f6f5f4;fill-opacity:1;stroke:none;stroke-width:0.0120835"
           d="m 132.46582,158.18776 c -0.0497,4.4e-4 -0.0877,0.0331 -0.12971,0.0873 -0.13247,0.15873 -3.99327,6.71646 -2.07274,9.19066 1.01561,1.30839 3.29492,0.0958 4.94285,0.0956 1.64793,2e-4 3.92724,1.21279 4.94285,-0.0956 1.92053,-2.4742 -1.94027,-9.03193 -2.07274,-9.19066 -0.0448,-0.0579 -0.0853,-0.0915 -0.14005,-0.0873 -0.12045,0.009 -0.30947,0.19974 -0.76481,0.709 -0.81937,0.9164 -1.26069,1.18468 -1.96525,1.19011 -0.70456,-0.005 -1.14589,-0.27371 -1.96526,-1.19011 -0.45534,-0.50926 -0.64436,-0.7 -0.76481,-0.709 -0.003,-2.6e-4 -0.007,-3e-5 -0.0103,0 z"
           inkscape:label="Barriga"
           sodipodi:insensitive="true" /><path
           id="path152"
           style="display:inline;fill:#e5a50a;fill-opacity:1;stroke-width:0.272715"
           d="m 129.8585,163.41309 c -0.57878,0.17579 -0.3837,0.5107 -0.71651,0.93755 -0.32243,0.41356 -0.67291,0.26451 -1.21594,0.39321 -0.7334,0.17382 -0.99444,0.30194 -0.54654,1.03837 0.28925,0.47557 0.20881,0.82791 0.12471,0.87901 -0.0204,0.0124 -0.50984,0.55633 -0.28806,0.88409 0.16847,0.24909 0.47243,0.37459 1.32062,0.54526 0.40999,0.0825 0.87739,0.19346 1.03868,0.24649 0.67017,0.22034 1.02257,0.47279 1.57062,0.57536 0.17352,0.0325 0.26146,0.0277 0.52951,0.01 0.34587,-0.0234 0.55375,-0.0788 0.71594,-0.19072 0.44386,-0.30617 0.39329,-0.48914 0.43414,-0.7855 0.052,-0.37694 -0.0414,-0.78258 -0.26131,-1.11119 -0.12694,-0.18963 -0.40383,-0.61633 -0.61528,-0.94834 -1.10402,-1.73348 -1.63273,-2.45427 -2.09068,-2.47315 z m 8.1676,1.42536 c -0.0147,0.40049 -0.0967,1.23955 -0.18256,1.86451 -0.21093,1.53537 -0.1129,1.88585 0.57733,2.06438 0.71133,0.18407 1.32085,-0.013 1.6777,-0.28627 0.36887,-0.29828 1.02646,-0.73327 2.28871,-1.51399 0.75593,-0.46755 0.87698,-0.99849 0.0344,-1.13587 -0.77444,-0.12628 -0.80047,-0.38178 -0.75429,-1.08138 0.0382,-0.57926 -0.21055,-0.71005 -0.44145,-0.71005 -0.3469,0 -0.61643,0.1417 -0.82603,0.43429 -0.40797,0.56949 -1.22512,0.61105 -1.22512,0.0623 -0.0192,-0.35897 -0.1624,-0.50592 -0.30797,-0.6244 -0.7451,-0.32654 -0.80319,0.36135 -0.84072,0.92648 z"
           sodipodi:nodetypes="cssszcssaccasscccssssssssszc"
           inkscape:label="Pés"
           sodipodi:insensitive="true" /></g><g
         id="g130"
         inkscape:label="Terminal"
         style="display:inline"
         transform="translate(-66.49543,-148.87131)"
         sodipodi:insensitive="true"><path
           d="m 71.99897,165.43745 h 22.859591 c 0.70176,0 1.2702,0.43864 1.2702,0.9804 v 12.2534 c 0,0.54177 -0.56844,0.98041 -1.2702,0.98041 H 71.99897 c -0.701766,0 -1.270207,-0.43864 -1.270207,-0.98041 v -12.2534 c 0,-0.54176 0.568441,-0.9804 1.270207,-0.9804 z m 0,0"
           fill="#241f31"
           id="path18"
           style="display:inline;stroke-width:0.231789"
           inkscape:label="Fundo"
           sodipodi:insensitive="true" /><g
           id="g37"
           transform="matrix(0.9625921,0,0,1.1755877,-35.87283,-69.901287)"
           style="fill:#3d3846;stroke:#3d3846"
           inkscape:label="Entrelaçamento"
           sodipodi:insensitive="true"><path
             d="m 134.47061,210.88039 -0.0352,0.0706 h 0.0705 z m -0.0146,-0.0188 h 0.0294 l 0.0731,0.14177 h -0.027 l -0.0175,-0.0364 h -0.0865 l -0.0175,0.0364 h -0.0274 z m 0.13917,0.0675 h 0.0545 v 0.0109 h -0.0769 v -0.0105 q 0.004,-0.003 0.0125,-0.008 0.0442,-0.029 0.0442,-0.0379 0,-0.006 -0.007,-0.0101 -0.007,-0.004 -0.0176,-0.004 -0.007,0 -0.0145,0.002 -0.008,0.002 -0.0171,0.005 v -0.0117 q 0.01,-0.003 0.0184,-0.004 0.009,-9.1e-4 0.0159,-9.1e-4 0.0186,0 0.0298,0.006 0.0111,0.006 0.0111,0.0166 0,0.0132 -0.0425,0.0402 -0.007,0.005 -0.0112,0.007 z m 0.13788,-0.0675 h 0.0219 l -0.0668,0.15981 h -0.0219 z m 0.16629,0.0776 v 0.0642 h -0.0237 v -0.0636 q 0,-0.015 -0.008,-0.0225 -0.008,-0.007 -0.0239,-0.007 -0.0191,0 -0.0302,0.009 -0.011,0.009 -0.011,0.0246 v 0.0601 h -0.0238 v -0.10635 h 0.0238 v 0.0165 q 0.008,-0.01 0.0199,-0.0144 0.0116,-0.005 0.0266,-0.005 0.0248,0 0.0375,0.0114 0.0127,0.0113 0.0127,0.0333 z m 0.14341,-0.0578 v 0.0529 h 0.0716 v 0.0161 h -0.0716 v 0.0529 h -0.0216 v -0.0529 h -0.0716 v -0.0161 h 0.0716 v -0.0529 z m 0.1321,0.10578 h 0.0424 v -0.10815 l -0.0461,0.007 v -0.0175 l 0.0459,-0.007 h 0.026 v 0.12563 h 0.0424 v 0.0162 h -0.11051 z m 0.16269,-0.0722 h 0.16474 v 0.016 h -0.16474 z m 0,0.0387 h 0.16474 v 0.0162 h -0.16474 z m 0.29941,-0.0269 q 0.0186,0.003 0.029,0.0123 0.0105,0.009 0.0105,0.023 0,0.021 -0.0195,0.0325 -0.0195,0.0115 -0.0555,0.0115 -0.0121,0 -0.0249,-0.002 -0.0127,-0.002 -0.0263,-0.005 v -0.0185 q 0.0108,0.005 0.0237,0.007 0.0128,0.003 0.0269,0.003 0.0244,0 0.0371,-0.007 0.0129,-0.007 0.0129,-0.0206 0,-0.0126 -0.0119,-0.0195 -0.0118,-0.007 -0.033,-0.007 h -0.0224 v -0.0157 h 0.0234 q 0.0191,0 0.0293,-0.005 0.0102,-0.005 0.0102,-0.0164 0,-0.011 -0.0105,-0.0167 -0.0104,-0.005 -0.03,-0.005 -0.0107,0 -0.0229,0.002 -0.0122,0.002 -0.0269,0.005 v -0.017 q 0.0148,-0.003 0.0276,-0.005 0.013,-0.002 0.0244,-0.002 0.0296,0 0.0468,0.0101 0.0172,0.01 0.0172,0.0268 0,0.0118 -0.009,0.0199 -0.009,0.008 -0.0259,0.0112 z m 0.0915,0.0523 h 0.0271 v 0.0163 l -0.0211,0.0304 h -0.0166 l 0.0105,-0.0304 z m 0.0855,0.008 h 0.0424 v -0.10815 l -0.0461,0.007 v -0.0175 l 0.0459,-0.007 h 0.026 v 0.12563 h 0.0424 v 0.0162 h -0.11051 z m 0.23426,-0.10891 -0.0655,0.0757 h 0.0655 z m -0.007,-0.0167 h 0.0326 v 0.0924 h 0.0274 v 0.016 h -0.0274 v 0.0334 h -0.0258 v -0.0334 h -0.0866 v -0.0185 z m 0.10742,0.12562 h 0.0424 v -0.10815 l -0.0461,0.007 v -0.0175 l 0.0459,-0.007 h 0.026 v 0.12563 h 0.0424 v 0.0161 h -0.11051 z m 0.22167,-0.0624 q -0.0175,0 -0.0278,0.009 -0.0102,0.009 -0.0102,0.0242 0,0.0153 0.0102,0.0242 0.0103,0.009 0.0278,0.009 0.0175,0 0.0276,-0.009 0.0103,-0.009 0.0103,-0.0242 0,-0.0154 -0.0103,-0.0242 -0.0102,-0.009 -0.0276,-0.009 z m 0.0515,-0.0601 v 0.0175 q -0.01,-0.004 -0.0198,-0.005 -0.01,-0.002 -0.0197,-0.002 -0.0257,0 -0.0393,0.0129 -0.0135,0.0129 -0.0154,0.0387 0.008,-0.008 0.019,-0.0126 0.0115,-0.005 0.0252,-0.005 0.0289,0 0.0456,0.013 0.0168,0.013 0.0168,0.0352 0,0.0218 -0.0175,0.035 -0.0175,0.0131 -0.0465,0.0131 -0.0333,0 -0.0509,-0.0187 -0.0176,-0.0188 -0.0176,-0.0547 0,-0.0337 0.0216,-0.0535 0.0216,-0.02 0.058,-0.02 0.01,0 0.0196,0.002 0.01,0.002 0.0208,0.005 z"
             id="text178"
             style="font-size:0.229497px;fill:#292435;stroke:none;stroke-width:0.0142508;stroke-linecap:square"
             aria-label="A²/n+1=3,1416"
             inkscape:label="Linha 8"
             sodipodi:insensitive="true" /><path
             style="opacity:0.2;fill:#3d3846;fill-opacity:0.75;fill-rule:evenodd;stroke:#3d3846;stroke-width:0.711491px;stroke-linecap:square;stroke-linejoin:miter;stroke-opacity:1"
             d="m 111.74888,211.38214 h 24.32958"
             id="path5225"
             sodipodi:nodetypes="cc"
             inkscape:label="Linha 7"
             sodipodi:insensitive="true" /><path
             style="opacity:0.2;fill:#3d3846;fill-opacity:0.75;fill-rule:evenodd;stroke:#3d3846;stroke-width:0.711491px;stroke-linecap:square;stroke-linejoin:miter;stroke-opacity:1"
             d="m 111.74888,210.17472 h 24.32958"
             id="path5223"
             sodipodi:nodetypes="cc"
             inkscape:label="Linha 6"
             sodipodi:insensitive="true" /><path
             style="opacity:0.2;fill:#3d3846;fill-opacity:0.75;fill-rule:evenodd;stroke:#3d3846;stroke-width:0.711491px;stroke-linecap:square;stroke-linejoin:miter;stroke-opacity:1"
             d="m 111.74888,208.96728 h 24.32958"
             id="path5221"
             sodipodi:nodetypes="cc"
             inkscape:label="Linha 5"
             sodipodi:insensitive="true" /><path
             style="opacity:0.2;fill:#3d3846;fill-opacity:0.75;fill-rule:evenodd;stroke:#3d3846;stroke-width:0.711491px;stroke-linecap:square;stroke-linejoin:miter;stroke-opacity:1"
             d="m 111.74888,207.75988 h 24.32958"
             id="path5219"
             sodipodi:nodetypes="cc"
             inkscape:label="Linha 4"
             sodipodi:insensitive="true" /><path
             style="opacity:0.2;fill:#3d3846;fill-opacity:0.75;fill-rule:evenodd;stroke:#3d3846;stroke-width:0.711491px;stroke-linecap:square;stroke-linejoin:miter;stroke-opacity:1"
             d="m 111.74888,206.55244 h 24.32958"
             id="path5217"
             sodipodi:nodetypes="cc"
             inkscape:label="Linha 3"
             sodipodi:insensitive="true" /><path
             style="opacity:0.2;fill:#3d3846;fill-opacity:0.75;fill-rule:evenodd;stroke:#3d3846;stroke-width:0.711491px;stroke-linecap:square;stroke-linejoin:miter;stroke-opacity:1"
             d="m 111.74888,205.34502 c 8.10986,0 16.21972,0 24.32958,0"
             id="path5215"
             inkscape:label="Linha 2"
             sodipodi:insensitive="true" /><path
             style="opacity:0.2;fill:#3d3846;fill-opacity:0.75;fill-rule:evenodd;stroke:#3d3846;stroke-width:0.711491px;stroke-linecap:square;stroke-linejoin:miter;stroke-opacity:1"
             d="m 111.74888,204.13761 h 24.32958"
             id="path5213"
             sodipodi:nodetypes="cc"
             inkscape:label="Linha 1"
             sodipodi:insensitive="true" /></g><g
           id="g122"
           style="display:inline;stroke:#f6f5f4"
           transform="matrix(0.60000025,0,0,0.60000025,8.5721437,58.098886)"
           inkscape:label="Prompt"
           sodipodi:insensitive="true"><polyline
             class="st0"
             points="8,15 11,18 8,21 "
             id="polyline1"
             transform="matrix(0.90257125,0,0,0.88070521,101.09173,175.06567)"
             style="display:inline;stroke:#f6f5f4"
             inkscape:label="Maior Que"
             sodipodi:insensitive="true" /><line
             class="st0"
             x1="113.72773"
             y1="193.56049"
             x2="117.33801"
             y2="193.56049"
             id="line4"
             style="stroke:#f6f5f4"
             inkscape:label="Sublinhado"
             sodipodi:insensitive="true" /></g><path
           id="rect31"
           style="fill:#5e5c64;stroke:#241f31;stroke-width:0.2;stroke-linecap:square;stroke-dasharray:none"
           d="m 72.011571,165.96661 h 22.785385 c 0.417519,0 0.753644,0.33613 0.753644,0.75365 l -2e-6,2.38689 H 71.257925 l 2e-6,-2.38689 c 0,-0.41752 0.336125,-0.75365 0.753644,-0.75365 z"
           sodipodi:nodetypes="sssccss"
           inkscape:label="Barra Superior"
           sodipodi:insensitive="true" /><g
           id="g129"
           inkscape:label="Botões"
           sodipodi:insensitive="true"><rect
             style="fill:#e58205;fill-opacity:1;stroke-width:0.0131317"
             id="rect32"
             width="1.8787738"
             height="1.8847382"
             x="72.469681"
             y="166.59451"
             ry="0.9423691"
             inkscape:label="Laranja"
             sodipodi:insensitive="true" /><rect
             style="fill:#e5a50a;fill-opacity:1;stroke-width:0.0131317"
             id="rect33"
             width="1.8787738"
             height="1.8847382"
             x="75.358734"
             y="166.59451"
             ry="0.9423691"
             inkscape:label="Amarelo"
             sodipodi:insensitive="true" /><rect
             style="fill:#f6f5f4;fill-opacity:1;stroke-width:0.0131317"
             id="rect128"
             width="1.8787738"
             height="1.8847382"
             x="78.29882"
             y="166.59451"
             ry="0.9423691"
             inkscape:label="Branco"
             sodipodi:insensitive="true" /></g></g></g></g><style
     type="text/css"
     id="style1">
	.st0{fill:none;stroke:#000000;stroke-width:2;stroke-linecap:round;stroke-linejoin:round;stroke-miterlimit:10;}
	.st1{fill:none;stroke:#000000;stroke-width:2;stroke-linejoin:round;stroke-miterlimit:10;}
</style></svg>
