<?xml version="1.0" encoding="UTF-8"?>
<svg version="1.1" xmlns="http://www.w3.org/2000/svg" width="3000" height="3000">
<path d="M0 0 C2.66645998 1.33322999 2.69444903 2.41349593 3.6796875 5.1953125 C10.75581269 24.34463759 20.02909955 42.14869464 29.49316406 60.20361328 C31.82898945 64.66410652 34.13552393 69.13905545 36.4296875 73.62109375 C50.28738335 100.68511417 63.90334996 126.88359388 83.55273438 150.26464844 C85.5547176 152.66513709 87.49020577 155.11756391 89.4375 157.5625 C97.79645427 167.75522852 107.04613099 177.23425962 116.47363281 186.43701172 C119.11467656 189.03222203 121.60677266 191.68114844 124.00390625 194.50390625 C129.63402248 201.01341366 135.8852743 206.95149877 142 213 C156.38626865 227.23046069 156.38626865 227.23046069 161.47363281 233.22412109 C164.31764226 236.5330342 167.36782182 239.65256637 170.375 242.8125 C175.41325038 248.14171504 180.20158139 253.56261169 184.76953125 259.3046875 C187.35391774 262.42767643 190.09576405 265.36382528 192.875 268.3125 C197.49821332 273.2347635 201.73703945 278.34530224 205.8527832 283.69628906 C209.12694585 287.93820475 212.54554333 292.02029813 216.0625 296.0625 C220.68417302 301.39208309 225.05828843 306.84717594 229.31640625 312.47265625 C231.27770298 315.06370671 233.26935704 317.62855381 235.27734375 320.18359375 C242.8967289 329.8827356 250.24098266 339.73641221 257.40429688 349.77636719 C258.96951686 351.95752135 260.5516128 354.12519595 262.140625 356.2890625 C270.41137136 367.57421263 278.21559888 379.14091964 285.90869141 390.82617188 C287.99871782 393.99805412 290.09857573 397.16326668 292.19921875 400.328125 C313.9235554 433.17173014 333.60617419 467.1883708 352 502 C352.84594727 503.59714844 352.84594727 503.59714844 353.70898438 505.2265625 C387.98554303 570.10579553 415.84097017 637.89501426 438.58851624 707.63514709 C440.32790001 712.96471654 442.09251872 718.2854133 443.86869812 723.60282898 C471.07385342 805.09583985 490.41135233 888.20502421 497 974 C497.0751886 974.9558197 497.1503772 975.9116394 497.22784424 976.89642334 C502.11763993 1039.5099778 502.30090132 1103.41335291 497 1166 C496.92974609 1166.85450745 496.85949219 1167.70901489 496.78710938 1168.5894165 C493.8210016 1204.61151333 488.80535766 1240.5692003 482 1276.0625 C481.8505896 1276.85734802 481.7011792 1277.65219604 481.54724121 1278.47113037 C479.55730756 1288.95709866 476.89288665 1299.1319815 473.83712769 1309.35641479 C471.4538725 1317.35047359 469.25563364 1325.38228029 467.1328125 1333.44921875 C466.80472595 1334.69284683 466.4766394 1335.93647491 466.13861084 1337.2177887 C464.7975412 1342.30917611 463.4608194 1347.40167605 462.13037109 1352.49584961 C455.9393182 1376.16635921 449.21689632 1399.69095748 441 1422.75 C440.67616837 1423.66066223 440.67616837 1423.66066223 440.34579468 1424.58972168 C429.81739049 1454.04785706 417.06521752 1482.68763763 403.85058594 1511.02246094 C402.08426295 1514.81210611 400.34056677 1518.61182193 398.6015625 1522.4140625 C387.85497301 1545.85413412 376.51315487 1568.86800835 363.60449219 1591.20117188 C361.97526731 1594.04314296 360.37789511 1596.90089702 358.7890625 1599.765625 C351.34142099 1613.17002642 343.39142864 1626.16621152 335 1639 C334.59942383 1639.61407715 334.19884766 1640.2281543 333.78613281 1640.86083984 C331.55920397 1644.26485965 329.28978467 1647.63801457 327 1651 C326.4121875 1651.8672168 326.4121875 1651.8672168 325.8125 1652.75195312 C311.28886501 1674.16103092 296.34773632 1695.62422556 279.40625 1715.19921875 C277.22756179 1717.73512694 275.1320481 1720.31239698 273.0625 1722.9375 C265.7283972 1732.18027299 257.928095 1741.05009444 250 1749.78515625 C248.20396471 1751.77412502 246.44046697 1753.78563194 244.6875 1755.8125 C240.71497745 1760.36548246 236.62028604 1764.80387487 232.50537109 1769.2277832 C230.82243577 1771.03716358 229.14060573 1772.84738359 227.46627808 1774.66473389 C214.15299766 1789.11351568 200.22635964 1802.96114036 186.33520508 1816.85009766 C182.8631653 1820.32203506 179.3981114 1823.80085785 175.93468761 1827.28138733 C173.22785706 1829.99940197 170.51642707 1832.71279308 167.80373573 1835.42495728 C166.52449552 1836.70536345 165.24684292 1837.98735815 163.97093773 1839.27108765 C156.62599047 1846.65694066 149.19750682 1853.55576895 141 1860 C139.58589366 1861.16841276 138.17499639 1862.34073828 136.76953125 1863.51953125 C128.64065892 1870.29275097 120.37629199 1876.80211924 111.87890625 1883.10546875 C107.96016542 1886.01661804 104.09440513 1888.9915336 100.25 1892 C99.39112183 1892.66745239 99.39112183 1892.66745239 98.51489258 1893.34838867 C93.48645176 1897.30054815 89.83589638 1900.89223218 86.72265625 1906.5078125 C86.12646484 1907.57773438 85.53027344 1908.64765625 84.91601562 1909.75 C84.30435547 1910.86375 83.69269531 1911.9775 83.0625 1913.125 C82.15081055 1914.76082031 82.15081055 1914.76082031 81.22070312 1916.4296875 C79.45840544 1919.608287 77.72561685 1922.80137073 76 1926 C75.31719971 1927.22348145 75.31719971 1927.22348145 74.62060547 1928.47167969 C67.72824443 1941.34065235 65.21459959 1954.69976642 64 1969.0625 C63.84716029 1970.75392751 63.69314503 1972.44524912 63.53808594 1974.13647461 C63.28869908 1976.86476494 63.04143238 1979.59314539 62.80145264 1982.32228088 C62.27901317 1988.20729828 61.66837358 1994.07595359 60.99391174 1999.94541931 C53.95136727 2061.45947353 55.77776028 2123.41094499 61 2185 C57.07718307 2184.26057409 53.56686965 2183.178374 49.8359375 2181.7421875 C48.0418042 2181.05624512 48.0418042 2181.05624512 46.21142578 2180.35644531 C44.93246976 2179.86301217 43.65366396 2179.3691895 42.375 2178.875 C39.7559404 2177.86527554 37.13615342 2176.85746879 34.515625 2175.8515625 C33.86912994 2175.60313599 33.22263489 2175.35470947 32.55654907 2175.09875488 C28.76296244 2173.64886298 24.95403208 2172.26898306 21.109375 2170.9609375 C20.25424316 2170.66590332 19.39911133 2170.37086914 18.51806641 2170.06689453 C16.98428872 2169.54332586 15.44516334 2169.03502422 13.89990234 2168.54638672 C7.97991413 2166.50170424 2.85767334 2162.71534668 0 2157 C-0.97605313 2150.91440701 -0.99363622 2145.07687507 -0.83334351 2138.92375183 C0.81139803 2071.71397592 -7.99942014 2001.98999725 -26.0625 1937.25 C-26.3296582 1936.25595154 -26.59681641 1935.26190308 -26.87207031 1934.23773193 C-30.20106202 1922.07136527 -33.03380698 1914.91705921 -44 1908 C-45.27150494 1906.96333157 -46.52471319 1905.90340719 -47.75 1904.8125 C-48.28939209 1904.34658447 -48.82878418 1903.88066895 -49.38452148 1903.40063477 C-49.91762939 1902.93842529 -50.4507373 1902.47621582 -51 1902 C-55.10130336 1898.46277274 -59.22806686 1894.97132773 -63.4375 1891.5625 C-69.12047155 1886.94612721 -74.63606268 1882.14813271 -80.15625 1877.33984375 C-83.26597441 1874.63221174 -86.39386752 1871.9468679 -89.53051758 1869.27050781 C-98.7892249 1861.3703531 -107.79533711 1853.21111016 -116.75 1844.96875 C-118.51455953 1843.34653857 -120.29131616 1841.74240054 -122.08699036 1840.15455627 C-128.9282562 1834.08507773 -135.43025756 1827.71662334 -141.88671875 1821.24609375 C-142.9989444 1820.13454406 -144.11131825 1819.02314265 -145.22383118 1817.91188049 C-147.53732012 1815.59985355 -149.84902248 1813.28605951 -152.15942383 1810.97094727 C-155.10099981 1808.02366146 -158.0470625 1805.08090784 -160.99447918 1802.13946438 C-163.28614729 1799.85143115 -165.57540217 1797.56099526 -167.86396217 1795.26985359 C-168.94874803 1794.18440725 -170.03425884 1793.09968486 -171.12055016 1792.01574516 C-176.9623171 1786.18386119 -182.63541264 1780.27671654 -188 1774 C-189.22954633 1772.65740533 -190.46656465 1771.32150538 -191.71875 1770 C-192.34136719 1769.34 -192.96398438 1768.68 -193.60546875 1768 C-194.23066406 1767.34 -194.85585937 1766.68 -195.5 1766 C-200.4565552 1760.76751286 -205.29312585 1755.45857938 -210 1750 C-210.73259033 1749.15066895 -210.73259033 1749.15066895 -211.47998047 1748.28417969 C-212.88525769 1746.65013641 -214.28712127 1745.01324268 -215.6875 1743.375 C-218.80023641 1739.7337043 -221.91435455 1736.09411282 -225.0546875 1732.4765625 C-230.44415123 1726.25566635 -235.67931764 1719.95584144 -240.72167969 1713.44995117 C-243.7558567 1709.54632848 -246.87348938 1705.72545431 -250.04345703 1701.93139648 C-257.49153377 1693.01035619 -264.438548 1683.79648399 -271.25878906 1674.38964844 C-272.96843799 1672.0433159 -274.69526477 1669.71087678 -276.4296875 1667.3828125 C-302.20307345 1632.76687404 -325.59119848 1596.46369106 -347 1559 C-347.42522949 1558.2575 -347.85045898 1557.515 -348.28857422 1556.75 C-376.50137913 1507.28097221 -400.72249469 1455.62118996 -420.23034668 1402.11035156 C-421.01678631 1399.95397276 -421.80763708 1397.79924245 -422.59863281 1395.64453125 C-441.90652525 1342.88956446 -457.31805274 1288.3692257 -467 1233 C-467.13043701 1232.25482117 -467.26087402 1231.50964233 -467.39526367 1230.74188232 C-469.46221366 1218.85691989 -471.32270337 1206.94609729 -473 1195 C-473.09819031 1194.30116699 -473.19638062 1193.60233398 -473.29754639 1192.88232422 C-477.75046447 1160.79604926 -479.18024834 1128.31921352 -481 1096 C-481.08382431 1094.55415527 -481.08382431 1094.55415527 -481.16934204 1093.07910156 C-483.55954117 1051.42121002 -482.46080437 1009.77513997 -478.32611084 968.2767334 C-477.99032209 964.90275722 -477.66203538 961.52810429 -477.33447266 958.15332031 C-472.57318885 909.46397553 -466.00714481 861.08921003 -457 813 C-456.75020386 811.66243652 -456.75020386 811.66243652 -456.49536133 810.29785156 C-449.2782059 771.81104318 -439.97719296 733.69205843 -429.375 696 C-429.08101318 694.94683594 -428.78702637 693.89367187 -428.48413086 692.80859375 C-428.20835205 691.86113281 -427.93257324 690.91367187 -427.6484375 689.9375 C-427.42333496 689.16277344 -427.19823242 688.38804687 -426.96630859 687.58984375 C-426.13319855 685.35699096 -425.192495 683.36104458 -424.10498047 681.24731445 C-421.92866286 676.97955008 -420.27284517 672.6154359 -418.671875 668.10546875 C-418.36619095 667.25782455 -418.0605069 666.41018036 -417.74555969 665.53684998 C-417.08720618 663.71021951 -416.43096334 661.88282719 -415.77664185 660.05474854 C-414.00126058 655.09638904 -412.20877451 650.14421128 -410.41796875 645.19140625 C-410.05001694 644.17266418 -409.68206512 643.15392212 -409.30296326 642.10430908 C-405.6200973 631.92059727 -401.85093247 621.76982401 -398.0625 611.625 C-396.74062848 608.08342917 -395.41902827 604.54175722 -394.09765625 601 C-393.76700165 600.11388535 -393.43634705 599.22777069 -393.09567261 598.31480408 C-390.54923334 591.48557748 -388.01942674 584.6502949 -385.49609375 577.8125 C-385.11945084 576.79199554 -384.74280792 575.77149109 -384.35475159 574.72006226 C-382.54620021 569.81867564 -380.73917486 564.91673157 -378.93383789 560.01416016 C-377.29249369 555.55921132 -375.64088799 551.10815555 -373.98498535 546.65859985 C-372.97963987 543.94504543 -371.98736111 541.22691372 -370.99511719 538.50854492 C-367.0915715 527.91311355 -362.7324034 517.92857351 -357.25 508.0625 C-356.5478762 506.77522848 -355.84697324 505.48729041 -355.1472168 504.19873047 C-353.42645607 501.03632348 -351.69171139 497.8818701 -349.95233154 494.72967529 C-348.54308914 492.17013414 -347.1482813 489.60282019 -345.75390625 487.03515625 C-343.81652614 483.46898282 -341.87250122 479.90660099 -339.921875 476.34765625 C-337.87696856 472.61272734 -335.84757998 468.86984507 -333.828125 465.12109375 C-328.46423367 455.16705764 -323.04084219 445.25904154 -317.4375 435.4375 C-312.59140049 426.93888941 -308.00515317 418.33461587 -303.52587891 409.63793945 C-299.42509983 401.71656295 -295.08114477 393.95039857 -290.64233398 386.21411133 C-287.82525271 381.29066671 -285.13278394 376.34602777 -282.60595703 371.26806641 C-277.81252103 361.71035429 -271.63086764 353.68860878 -264.92089844 345.39941406 C-261.55865819 341.19960507 -258.31450895 336.91035758 -255.0625 332.625 C-254.39420166 331.74706787 -253.72590332 330.86913574 -253.03735352 329.96459961 C-247.82484371 323.10986965 -242.66570452 316.21590738 -237.51074219 309.31787109 C-232.7668799 302.98562853 -227.92695816 296.7334283 -223.05371094 290.50048828 C-218.86003171 285.12874275 -214.74715301 279.70250713 -210.67236328 274.24023438 C-205.87843509 267.81898061 -201.01484242 261.45177823 -196.15087891 255.08349609 C-190.79584835 248.06404687 -185.49101973 241.00813022 -180.22338867 233.92285156 C-172.97965569 224.21528477 -165.48352739 215.18402671 -156.875 206.64453125 C-155.91874112 205.68946944 -154.96285709 204.73403219 -154.00732422 203.77824402 C-152.020337 201.79280614 -150.03008555 199.81072459 -148.03710938 197.83129883 C-145.50396401 195.31517564 -142.97748479 192.79248649 -140.45321655 190.26746082 C-138.48534226 188.29986051 -136.51485705 186.33489228 -134.54351807 184.37076378 C-133.16460298 182.99650063 -131.78711412 181.6208069 -130.40966797 180.24507141 C-126.01523643 175.88344998 -121.55698811 171.67891939 -116.86328125 167.64213562 C-113.75039856 164.89870891 -110.84976487 161.95323786 -107.9375 159 C-107.30191162 158.360625 -106.66632324 157.72125 -106.01147461 157.0625 C-104.0051635 155.04411603 -102.00215999 153.02250124 -100 151 C-84.66115017 135.5053128 -84.66115017 135.5053128 -78.77636719 130.52246094 C-75.27406877 127.52076593 -71.96869823 124.30084419 -68.625 121.125 C-63.98575589 116.73447525 -59.33998931 112.36492712 -54.5625 108.125 C-27.48599061 83.89381872 -5.91288115 52.55375638 -3.5625 15.375 C-3.2007086 9.76723328 -2.03683481 5.22492407 0 0 Z " fill="#4EA93F" transform="translate(1491,73)"/>
<path d="M0 0 C2.73316761 3.37006801 4.68142607 7.03430933 6.6328125 10.88671875 C6.9818866 11.56828033 7.33096069 12.24984192 7.69061279 12.95205688 C8.44446953 14.42508574 9.19660689 15.89899554 9.94720459 17.37368774 C11.14116949 19.71926541 12.33974121 22.06243646 13.53955078 24.4050293 C15.20452603 27.65683546 16.86775913 30.90952199 18.52929688 34.16308594 C42.57262108 82.37952663 42.57262108 82.37952663 73.55273438 126.26464844 C75.5547176 128.66513709 77.49020577 131.11756391 79.4375 133.5625 C87.79645427 143.75522852 97.04613099 153.23425962 106.47363281 162.43701172 C109.11467656 165.03222203 111.60677266 167.68114844 114.00390625 170.50390625 C119.63402248 177.01341366 125.8852743 182.95149877 132 189 C146.38626865 203.23046069 146.38626865 203.23046069 151.47363281 209.22412109 C154.31764226 212.5330342 157.36782182 215.65256637 160.375 218.8125 C165.41325038 224.14171504 170.20158139 229.56261169 174.76953125 235.3046875 C177.35391774 238.42767643 180.09576405 241.36382528 182.875 244.3125 C187.49821332 249.2347635 191.73703945 254.34530224 195.8527832 259.69628906 C199.12694585 263.93820475 202.54554333 268.02029813 206.0625 272.0625 C210.68417302 277.39208309 215.05828843 282.84717594 219.31640625 288.47265625 C221.27770298 291.06370671 223.26935704 293.62855381 225.27734375 296.18359375 C232.8967289 305.8827356 240.24098266 315.73641221 247.40429688 325.77636719 C248.96951686 327.95752135 250.5516128 330.12519595 252.140625 332.2890625 C260.41137136 343.57421263 268.21559888 355.14091964 275.90869141 366.82617188 C277.99871782 369.99805412 280.09857573 373.16326668 282.19921875 376.328125 C303.9235554 409.17173014 323.60617419 443.1883708 342 478 C342.84594727 479.59714844 342.84594727 479.59714844 343.70898438 481.2265625 C377.98554303 546.10579553 405.84097017 613.89501426 428.58851624 683.63514709 C430.32790001 688.96471654 432.09251872 694.2854133 433.86869812 699.60282898 C461.07385342 781.09583985 480.41135233 864.20502421 487 950 C487.0751886 950.9558197 487.1503772 951.9116394 487.22784424 952.89642334 C492.11763993 1015.5099778 492.30090132 1079.41335291 487 1142 C486.89461914 1143.28176117 486.89461914 1143.28176117 486.78710938 1144.5894165 C483.8210016 1180.61151333 478.80535766 1216.5692003 472 1252.0625 C471.8505896 1252.85734802 471.7011792 1253.65219604 471.54724121 1254.47113037 C469.55730756 1264.95709866 466.89288665 1275.1319815 463.83712769 1285.35641479 C461.4538725 1293.35047359 459.25563364 1301.38228029 457.1328125 1309.44921875 C456.64068268 1311.31466087 456.64068268 1311.31466087 456.13861084 1313.2177887 C454.7975412 1318.30917611 453.4608194 1323.40167605 452.13037109 1328.49584961 C445.9393182 1352.16635921 439.21689632 1375.69095748 431 1398.75 C430.78411224 1399.35710815 430.56822449 1399.96421631 430.34579468 1400.58972168 C419.81739049 1430.04785706 407.06521752 1458.68763763 393.85058594 1487.02246094 C392.08426295 1490.81210611 390.34056677 1494.61182193 388.6015625 1498.4140625 C377.85497301 1521.85413412 366.51315487 1544.86800835 353.60449219 1567.20117188 C351.97526731 1570.04314296 350.37789511 1572.90089702 348.7890625 1575.765625 C341.34142099 1589.17002642 333.39142864 1602.16621152 325 1615 C324.39913574 1615.92111572 324.39913574 1615.92111572 323.78613281 1616.86083984 C321.55920397 1620.26485965 319.28978467 1623.63801457 317 1627 C316.608125 1627.57814453 316.21625 1628.15628906 315.8125 1628.75195312 C301.28886501 1650.16103092 286.34773632 1671.62422556 269.40625 1691.19921875 C267.22756179 1693.73512694 265.1320481 1696.31239698 263.0625 1698.9375 C255.7283972 1708.18027299 247.928095 1717.05009444 240 1725.78515625 C238.20396471 1727.77412502 236.44046697 1729.78563194 234.6875 1731.8125 C230.71497745 1736.36548246 226.62028604 1740.80387487 222.50537109 1745.2277832 C220.82243577 1747.03716358 219.14060573 1748.84738359 217.46627808 1750.66473389 C204.15299766 1765.11351568 190.22635964 1778.96114036 176.33520508 1792.85009766 C172.8631653 1796.32203506 169.3981114 1799.80085785 165.93468761 1803.28138733 C163.22785706 1805.99940197 160.51642707 1808.71279308 157.80373573 1811.42495728 C156.52449552 1812.70536345 155.24684292 1813.98735815 153.97093773 1815.27108765 C146.62599047 1822.65694066 139.19750682 1829.55576895 131 1836 C129.58589366 1837.16841276 128.17499639 1838.34073828 126.76953125 1839.51953125 C119.26921099 1845.76902257 111.68598502 1851.84351546 103.83618164 1857.64916992 C98.63816982 1861.49597098 93.54875233 1865.46492548 88.51489258 1869.52416992 C85.79373424 1871.69561583 83.20617317 1873.61480868 80 1875 C73.50704272 1870.46974273 67.39201741 1865.75372541 61.58203125 1860.37109375 C59.21848817 1858.08321657 59.21848817 1858.08321657 57.20727539 1856.78857422 C49.28035051 1851.00503089 46.47306784 1842.00250597 42.8125 1833.25 C42.12238697 1831.63979033 41.43034241 1830.03040705 40.73632812 1828.421875 C39.40388071 1825.32944481 38.08385922 1822.23216465 36.7722168 1819.13085938 C35.31904557 1815.71272956 33.77871363 1812.34448402 32.1953125 1808.984375 C29.95587099 1804.10018428 28.40808362 1799.19487536 27.0625 1794 C26.81580566 1793.06849121 26.56911133 1792.13698242 26.31494141 1791.17724609 C21.14535405 1771.31308217 17.06656956 1751.29008434 14 1731 C13.70029297 1729.0509375 13.70029297 1729.0509375 13.39453125 1727.0625 C10.18095514 1706.09567115 7.66045477 1685.14829686 6 1664 C5.92797363 1663.11602539 5.85594727 1662.23205078 5.78173828 1661.32128906 C5.35471258 1655.88209165 5.13499754 1650.4537049 5 1645 C4.95117676 1643.40309326 4.95117676 1643.40309326 4.90136719 1641.77392578 C4.39520831 1623.01792742 5.33065229 1604.51002993 6.8125 1585.8125 C9.00702407 1557.98057704 10.46900334 1530.15121767 11.6481781 1502.26037312 C11.90341133 1496.23542966 12.16497549 1490.21078253 12.4291544 1484.18622494 C15.4871295 1414.44211259 17.82883235 1344.7431253 18.83691406 1274.93408203 C18.99397097 1264.05901827 19.18958483 1253.18492082 19.40811157 1242.31092834 C19.82148024 1221.2790158 20.07259225 1200.24794073 20.06005859 1179.21191406 C20.05980391 1178.06966448 20.05954923 1176.9274149 20.05928683 1175.7505517 C20.04265823 1135.67260459 19.71355506 1095.59506807 19.43711287 1055.5182842 C19.40615807 1051.02432456 19.37541749 1046.53036346 19.3446715 1042.03640239 C19.20840861 1022.12620272 19.07093738 1002.21601172 18.93017006 982.30584335 C18.89614333 977.49084227 18.86212532 972.67584112 18.828125 967.86083984 C18.81967778 966.66472872 18.81123055 965.4686176 18.80252735 964.23626068 C18.66527252 944.77189732 18.53557201 925.30749104 18.40888937 905.84305629 C18.27777915 885.71783812 18.13982241 865.59267579 17.99527586 845.46754956 C17.91468388 834.22329223 17.83698498 822.97903218 17.76704788 811.73470306 C17.70765853 802.18880533 17.64201213 792.64297554 17.56849338 783.09717575 C17.53130678 778.24484441 17.49687122 773.39253974 17.47053719 768.54013634 C17.36633102 749.68084347 16.98880686 730.99758222 15.46483803 712.19095039 C14.71476494 702.75423021 14.56053714 693.31166366 14.41552734 683.84985352 C14.37874913 681.79922313 14.34156158 679.74860005 14.30400658 677.69798374 C13.87168329 653.25386659 13.63426754 628.8065279 13.39132285 604.3599577 C13.32271076 597.53053681 13.25070263 590.7011519 13.17878723 583.87176514 C13.14884323 581.02456867 13.11891564 578.17737204 13.0889883 575.3301754 C13.08149476 574.61761174 13.07400122 573.90504808 13.06628061 573.17089158 C13.01263167 568.06624565 12.95939829 562.96159549 12.90636539 557.85694313 C12.55952483 524.48260166 12.19920965 491.10841234 11.82421875 457.734375 C11.81574473 456.98002654 11.80727071 456.22567807 11.79853991 455.44847056 C11.18335114 400.73352376 10.44062306 346.02170471 9.48326778 291.31154871 C9.43806308 288.71978365 9.39329596 286.12801144 9.34870148 283.53623581 C8.69344103 245.45941527 7.89915152 207.38733674 6.9609375 169.31640625 C6.93980101 168.45633587 6.91866453 167.59626548 6.89688754 166.71013236 C5.94225995 127.9061647 4.6855933 89.36196569 0.67651367 50.72753906 C-0.41726271 40.10532706 -1.42136433 29.69010272 -1 19 C-0.96600098 18.0625293 -0.93200195 17.12505859 -0.89697266 16.15917969 C-0.78854674 13.64571147 -0.65181959 11.13617802 -0.5 8.625 C-0.45230469 7.78195313 -0.40460938 6.93890625 -0.35546875 6.0703125 C-0.24048921 4.04667251 -0.1207941 2.02330123 0 0 Z " fill="#439934" transform="translate(1501,97)"/>
<path d="M0 0 C0.89082275 -0.00193359 1.78164551 -0.00386719 2.69946289 -0.00585938 C3.70871826 -0.00134766 4.71797363 0.00316406 5.7578125 0.0078125 C6.86181396 0.00974609 7.96581543 0.01167969 9.10327148 0.01367188 C16.00573569 0.04697912 22.90115788 0.16984503 29.80078125 0.359375 C53.35136554 1.00164339 76.88695187 1.2578125 100.4453125 1.2578125 C101.22190845 1.2578125 101.99850441 1.2578125 102.79863358 1.2578125 C123.33174812 1.25355425 143.85409269 1.09139046 164.3828125 0.6328125 C165.40591522 0.60998199 166.42901794 0.58715149 167.48312378 0.56362915 C168.49150299 0.54110077 169.4998822 0.51857239 170.53881836 0.49536133 C222.63639879 -0.66434916 273.79247265 -0.9458407 321.8828125 22.1328125 C322.64029785 22.49632813 323.3977832 22.85984375 324.17822266 23.234375 C362.97205773 42.17564595 392.92268194 74.04785945 410.8828125 113.1328125 C411.42679688 114.31617187 411.97078125 115.49953125 412.53125 116.71875 C436.71934349 171.35682921 437.11350706 241.28305884 415.98828125 296.9921875 C409.62388361 312.91416011 402.1863195 328.38140808 391.8828125 342.1328125 C391.45677734 342.70999023 391.03074219 343.28716797 390.59179688 343.88183594 C381.63628909 355.93528605 371.63673897 367.72130554 359.8828125 377.1328125 C358.86960937 377.96039062 357.85640625 378.78796875 356.8125 379.640625 C309.95778955 417.49794571 251.88692772 435.26991475 192.1953125 437.7578125 C191.24237305 437.79801514 190.28943359 437.83821777 189.30761719 437.87963867 C182.10636065 438.13113159 174.91050369 438.15747815 167.70556641 438.15356445 C166.61434196 438.15318397 165.5231175 438.15280348 164.39882565 438.15241146 C151.36318469 438.14036753 138.32819537 438.04763086 125.29296875 437.94921875 C123.97926237 437.93943434 122.66555599 437.92964993 121.31204033 437.91956902 C115.06820076 437.87301465 108.82436861 437.82558962 102.58054453 437.77700192 C96.21378628 437.72747984 89.84702066 437.67990935 83.48022461 437.63549805 C22.39726996 437.20817299 22.39726996 437.20817299 -5.1171875 436.1328125 C-7.24560601 431.44315349 -6.91054784 428.53414046 -5.4921875 423.6953125 C-5.32589844 423.05271484 -5.15960937 422.41011719 -4.98828125 421.74804688 C-3.51731766 416.46009381 -1.23814901 412.38002172 2.5234375 408.39453125 C6.32486753 406.36164731 10.4328029 405.79346687 14.6328125 404.9453125 C30.649764 401.43791428 30.649764 401.43791428 43.6484375 392.0390625 C44.76491466 389.73945283 45.27930385 387.61528928 45.8828125 385.1328125 C46.13170731 384.30386978 46.38060211 383.47492706 46.63703918 382.62086487 C49.10165706 373.99076507 49.35938256 365.62145739 49.39453125 356.72265625 C49.41172019 355.01006518 49.42998849 353.29748469 49.44920349 351.58491516 C49.49854327 346.77457319 49.52768891 341.96428519 49.55277252 337.15376282 C49.57041455 334.05237328 49.59348699 330.95107105 49.61834717 327.84973145 C50.02096494 277.25934075 49.98421721 226.66460194 50.00485611 176.07295609 C50.00671011 171.60903504 50.00910149 167.1451148 50.01198959 162.68119431 C50.02025548 149.77048561 50.02300758 136.85979753 50.01732063 123.94908714 C50.01571388 119.95507643 50.01631725 115.96107594 50.01891899 111.96706581 C50.02181906 107.29761805 50.01982365 102.6281968 50.01417029 97.9587518 C50.01289309 96.26835393 50.01324515 94.57795378 50.01548803 92.88755691 C50.02551879 84.52536817 49.91233229 76.19189425 49.44503784 67.84124756 C49.40734948 67.14707804 49.36966112 66.45290852 49.33083069 65.73770356 C48.77631451 56.86331042 46.96919158 50.6452168 41.08984375 43.921875 C34.63257778 38.68748949 27.47767007 37.14445242 19.4453125 35.6953125 C17.23951561 35.27639812 15.0337886 34.85711561 12.828125 34.4375 C11.69407227 34.22577148 10.56001953 34.01404297 9.39160156 33.79589844 C3.5245659 32.68715443 -2.32659632 31.500061 -8.1796875 30.3203125 C-10.29550099 29.89677596 -12.41137972 29.47356508 -14.52734375 29.05078125 C-16.05729167 28.74479167 -17.58723958 28.43880208 -19.1171875 28.1328125 C-18.31844793 23.50299867 -16.56228676 19.83869974 -14.3046875 15.7578125 C-13.96115234 15.12359375 -13.61761719 14.489375 -13.26367188 13.8359375 C-12.22620683 11.92840326 -11.17241615 10.03056536 -10.1171875 8.1328125 C-9.75963379 7.47249023 -9.40208008 6.81216797 -9.03369141 6.13183594 C-6.42214945 1.38820062 -5.36446008 0.00799472 0 0 Z M139.01171875 33.95703125 C138.28049301 34.02638382 137.54926727 34.09573639 136.79588318 34.16719055 C132.27511462 34.68995608 128.77649078 35.77310699 124.8828125 38.1328125 C121.12610624 43.18493471 120.75282587 47.70354554 120.57107544 53.87501526 C120.55061181 54.55902133 120.53014818 55.24302741 120.50906444 55.94776094 C120.44277185 58.26396191 120.38489672 60.58026352 120.32861328 62.89672852 C120.30765099 63.71855531 120.28668869 64.5403821 120.26509118 65.38711274 C119.67041582 89.26525877 119.73619692 113.14979979 119.748487 137.03367305 C119.75080381 142.96960152 119.74901175 148.90552863 119.7475598 154.84145708 C119.74473833 167.30425827 119.74793969 179.767052 119.75336017 192.22985197 C119.75783252 202.8401687 119.75704217 213.45047448 119.75244141 224.06079102 C119.74704865 236.50270709 119.7450051 248.94461671 119.74805367 261.3865338 C119.74961437 267.92904181 119.74987172 274.47154379 119.74651718 281.01405144 C119.69457554 313.63384184 119.69457554 313.63384184 120.20361328 346.24829102 C120.22557707 347.40865088 120.24754086 348.56901075 120.27017021 349.76453304 C120.72042658 363.60462774 123.64917685 375.54462717 133.1328125 385.9453125 C150.04846856 401.6474541 179.94656806 403.36605979 201.6328125 403.3828125 C202.41526337 403.38348724 203.19771423 403.38416199 204.00387573 403.38485718 C216.18739537 403.36817319 227.96091081 402.85536861 239.8828125 400.1328125 C240.63191895 399.96652344 241.38102539 399.80023437 242.15283203 399.62890625 C278.74965141 391.22478868 308.11377478 367.64376593 327.8828125 336.1328125 C358.71772728 286.49473488 363.24105888 222.79957819 350.76074219 166.64648438 C348.18421866 155.90595699 345.08263445 145.35421688 340.8828125 135.1328125 C340.46225586 134.10631592 340.46225586 134.10631592 340.03320312 133.05908203 C332.6406727 115.43042641 321.78272411 100.15045839 308.8828125 86.1328125 C308.20992187 85.38902344 307.53703125 84.64523438 306.84375 83.87890625 C276.32500409 51.73682279 229.56134529 34.39352751 185.86300659 33.07171631 C181.0350931 32.9693992 176.2080337 32.94704789 171.37915039 32.94750977 C168.84959706 32.94533765 166.32049143 32.9271625 163.79101562 32.90820312 C155.49051642 32.87819584 147.27309297 33.11285961 139.01171875 33.95703125 Z " fill="#94785C" transform="translate(2064.1171875,2319.8671875)"/>
<path d="M0 0 C1.41207952 0.04914199 2.82416572 0.09809235 4.23625755 0.1468792 C5.35682552 0.18861374 5.35682552 0.18861374 6.50003123 0.2311914 C20.5617722 0.74468417 34.61159182 0.977616 48.68222046 0.94454956 C49.93335628 0.94169555 49.93335628 0.94169555 51.20976758 0.93878388 C55.55196792 0.92743032 59.89413467 0.91139475 64.23630905 0.89266586 C69.81524254 0.86892083 75.39417345 0.85610827 80.97314453 0.8449707 C96.80476673 0.81207033 112.63633058 0.76980096 128.46786499 0.70724487 C137.28358666 0.67250197 146.09926912 0.64884598 154.91505206 0.63703644 C159.54310067 0.63034771 164.1709791 0.61822147 168.79896164 0.59200668 C208.35218449 0.37379913 252.10591032 2.74447353 283.06356812 30.87863159 C283.97880249 31.70105347 284.89403687 32.52347534 285.83700562 33.37081909 C302.42518124 49.05005359 311.53943583 71.87041684 312.26669312 94.62863159 C312.62466721 118.6334169 306.93695369 139.45949464 291.25106812 158.12863159 C290.79014771 158.6828479 290.32922729 159.23706421 289.8543396 159.80807495 C281.89564511 168.94994668 271.71755972 175.1924388 261.43856812 181.37863159 C260.23114886 182.11236849 259.02411522 182.84674031 257.81747437 183.58175659 C254.9038958 185.35469297 251.98525834 187.11908639 249.06356812 188.87863159 C254.42044017 191.34818026 259.80911156 193.56354507 265.35678101 195.56588745 C281.59736687 201.46471396 296.72492105 208.77664791 310.06356812 219.87863159 C310.84731812 220.49995972 311.63106812 221.12128784 312.43856812 221.76144409 C331.0042871 237.16841228 341.73689085 260.86250777 344.78231812 284.46456909 C346.94125262 310.67163517 341.88249431 335.9331356 329.06356812 358.87863159 C328.51958374 359.8647644 327.97559937 360.85089722 327.41513062 361.86691284 C306.90403521 396.43561266 264.32238862 418.88631559 226.73446655 429.20236206 C198.3177101 436.39746401 170.44578038 437.03974224 141.28480816 437.0129571 C137.56801477 437.01037081 133.85122346 437.01278901 130.13442993 437.01434326 C123.87789461 437.01615161 117.62137116 437.01379875 111.36483765 437.00900269 C105.03312403 437.00420333 98.70143402 437.00415275 92.36972046 437.00900269 C31.85403729 437.0541061 31.85403729 437.0541061 7.51669312 436.43331909 C6.35009785 436.40419622 6.35009785 436.40419622 5.159935 436.37448502 C-4.22882923 436.12975132 -13.57439032 435.62956859 -22.93643188 434.87863159 C-25.26425777 426.40516641 -21.68350751 418.59977913 -17.66690063 411.19113159 C-14.04616833 406.35259091 -9.5264224 405.37717589 -3.76455688 404.41378784 C-2.36351299 404.16835788 -0.96247139 403.92291475 0.43856812 403.67745972 C2.62098353 403.30810155 4.80402289 402.94272139 6.98739624 402.57907104 C21.64234446 400.7035545 21.64234446 400.7035545 33.00106812 392.31613159 C40.68626984 377.89647474 38.22484388 356.50579696 38.37338257 340.54489136 C38.39366014 338.66759664 38.41419563 336.7903047 38.43496513 334.91301537 C38.48959416 329.84055887 38.53815416 324.76806241 38.58480239 319.69552684 C38.61465964 316.47406078 38.64589465 313.25261046 38.67742348 310.03116035 C39.14664178 261.65999829 39.25145987 213.28945959 39.24867928 164.91631377 C39.24903693 155.75066747 39.26084734 146.58505761 39.27461451 137.41942304 C39.28766819 128.3974213 39.29305676 119.3754362 39.29241544 110.35342509 C39.29216294 105.04545752 39.29488569 99.73753654 39.30559349 94.42957878 C39.31525511 89.52080368 39.31536736 84.61212075 39.30807686 79.70334244 C39.30703383 77.91548718 39.30937713 76.1276261 39.31543732 74.33978081 C39.66610327 56.98985962 39.66610327 56.98985962 32.06356812 41.87863159 C22.76874249 33.21396364 5.94895136 33.12415545 -6.18643188 31.25363159 C-8.28336384 30.92961727 -10.38006838 30.60439689 -12.47616577 30.27502441 C-14.34555533 29.98130279 -16.21568081 29.69227617 -18.08584595 29.40353394 C-20.93643188 28.87863159 -20.93643188 28.87863159 -22.93643188 27.87863159 C-23.42010353 19.07130833 -19.72739284 10.09041794 -14.37393188 3.06613159 C-10.08766325 -0.78051975 -5.54654244 -0.21385295 0 0 Z M126.39169312 33.96847534 C117.35271749 34.1957157 117.35271749 34.1957157 110.06356812 38.87863159 C108.15788813 42.71252473 107.77738454 45.94246269 107.67367554 50.19723511 C107.62090202 52.13843483 107.62090202 52.13843483 107.56706238 54.11885071 C107.53812977 55.56090464 107.50963788 57.00296747 107.48153687 58.44503784 C107.44521868 59.98277336 107.40843529 61.52049795 107.37123108 63.05821228 C107.24945763 68.33136715 107.15374878 73.6048519 107.06356812 78.87863159 C107.04695381 79.84908165 107.03033951 80.81953171 107.01322174 81.81938934 C106.777045 95.88703776 106.60056953 109.95508434 106.45101929 124.02389526 C106.38945179 129.76553061 106.31527249 135.50693793 106.2386446 141.24838924 C106.18126471 145.71345079 106.13289437 150.17857663 106.08705711 154.64377022 C106.06372156 156.76452183 106.03698905 158.88523899 106.00673866 161.00590324 C105.96573873 163.93734628 105.93748365 166.86864578 105.91244507 169.80026245 C105.89747482 170.66596863 105.88250458 171.5316748 105.86708069 172.4236145 C105.86286102 173.21994797 105.85864136 174.01628143 105.85429382 174.83674622 C105.84637471 175.52503478 105.8384556 176.21332335 105.83029652 176.92246914 C106.11168715 179.28214684 106.82335294 180.85992286 108.06356812 182.87863159 C117.36053227 187.52711367 132.83862098 185.53694274 143.06356812 185.87863159 C144.37067749 185.92245972 145.67778687 185.96628784 147.02450562 186.01144409 C155.54949188 186.14317677 164.06042867 185.71432963 172.57040405 185.24084473 C174.55854662 185.13231741 176.54738933 185.03686019 178.53622437 184.94186401 C196.90017866 183.81861147 211.85153079 179.02173655 225.06356812 165.87863159 C225.62946655 165.34753784 226.19536499 164.81644409 226.77841187 164.26925659 C240.50973468 150.1372851 241.5594172 129.04599908 241.48568726 110.59127808 C241.1263548 92.41141214 236.28279673 76.73548878 224.06356812 62.87863159 C223.4074353 62.12839722 222.75130249 61.37816284 222.07528687 60.60519409 C200.75853584 37.76860159 168.43480335 34.84775811 139.07528687 33.72628784 C134.84063844 33.67975324 130.6243671 33.86490991 126.39169312 33.96847534 Z M109.06356812 218.87863159 C107.09143283 222.18265565 106.8151518 224.65755029 106.82064819 228.47994995 C106.81763199 229.62086594 106.81461578 230.76178192 106.81150818 231.93727112 C106.81863327 233.18506851 106.82575836 234.43286591 106.83309937 235.71847534 C106.83301376 237.03584183 106.83292816 238.35320831 106.83283997 239.710495 C106.83358244 243.32457172 106.84773135 246.93847666 106.86552429 250.55250549 C106.87606882 252.81628229 106.88369746 255.08005019 106.89035034 257.34384155 C106.91645433 266.06990315 106.96034773 274.79574335 107.01764488 283.52165413 C107.05466166 289.21305534 107.08222683 294.90444658 107.10604858 300.59591675 C107.13994608 308.43992405 107.19903677 316.28348173 107.27410889 324.12719727 C107.30204366 327.10431801 107.32158345 330.08130679 107.33374023 333.05853271 C106.9982492 364.87209471 106.9982492 364.87209471 122.06356812 391.87863159 C135.50419686 403.30819369 158.08215211 403.2755041 174.81356812 403.19113159 C175.56369171 403.18930878 176.31381531 403.18748596 177.08666992 403.18560791 C188.00465794 403.14091397 198.4759381 402.79694196 209.06356812 399.87863159 C209.7072937 399.70170776 210.35101929 399.52478394 211.01425171 399.34249878 C224.10851297 395.63784338 234.82251838 389.81531355 245.06356812 380.87863159 C245.67845093 380.3591394 246.29333374 379.83964722 246.92684937 379.30441284 C261.63322179 365.88273502 270.14344208 343.10563686 271.18759155 323.55661011 C272.02176997 296.75734119 267.59735026 271.6055726 249.10653687 251.01925659 C229.05042184 229.72462945 198.69715409 220.24180313 170.18856812 219.12863159 C149.82948554 218.52236022 129.42897189 218.7934536 109.06356812 218.87863159 Z " fill="#94785C" transform="translate(2558.9364318847656,2320.121368408203)"/>
<path d="M0 0 C0.83397568 5.04161285 1.12327651 9.90228516 1.0625 15.015625 C1.05682007 16.12209381 1.05682007 16.12209381 1.05102539 17.25091553 C1.03891026 19.58400612 1.02027046 21.91696692 1 24.25 C0.97340742 27.33853817 0.95343771 30.42701558 0.9375 33.515625 C0.92920166 34.22189026 0.92090332 34.92815552 0.91235352 35.65582275 C0.89692953 38.72773487 1.01990525 41.05971576 2 44 C7.52508112 41.39817804 12.24137389 38.5363907 17.0625 34.8125 C44.64848464 14.11521495 80.05854246 -3.21798801 115.34521484 1.30029297 C139.49701914 5.57326263 156.75063542 21.28113296 170.40625 40.78515625 C171.95376184 43.06106237 171.95376184 43.06106237 174 45 C179.10955361 44.88892275 182.58138989 41.67450708 186.5 38.75 C218.33731044 15.74558073 254.95000752 -4.86981653 295.63671875 1.61328125 C317.60912295 6.10021036 336.45285994 20.15816066 348.6875 38.625 C355.4972661 49.4152895 359.7602721 61.02724647 362.8125 73.375 C363.0074707 74.15109619 363.20244141 74.92719238 363.40332031 75.72680664 C367.6880238 94.46577222 367.25198263 113.6368086 367.13692474 132.73117614 C367.11667368 136.55101258 367.10988676 140.37087151 367.10205078 144.19075012 C367.08005784 153.85638728 367.04089255 163.52192718 367 173.1875 C366.95579287 183.66647018 366.91475709 194.14540275 366.89316368 204.62444764 C366.88325236 209.15249646 366.86362006 213.6803633 366.83630371 218.2083391 C366.82132912 221.02319342 366.81474296 223.8380233 366.8103714 226.65291214 C366.80487895 228.56683228 366.78930959 230.48071532 366.77337646 232.39457703 C366.64918801 243.18627009 366.64918801 243.18627009 371.0625 252.75 C379.17902247 258.96691082 389.32528419 260.8359796 399.0625 263.25 C400.51516056 263.61644858 401.96763632 263.98363055 403.41992188 264.3515625 C406.94452553 265.24283509 410.47152181 266.12417505 414 267 C413.88398175 269.14633769 413.75667743 271.29206607 413.625 273.4375 C413.52058594 275.22994141 413.52058594 275.22994141 413.4140625 277.05859375 C413.09689848 280.07763613 412.64767894 282.8051353 411.97412109 285.74633789 C411.79223236 286.54608536 411.61034363 287.34583282 411.42294312 288.16981506 C411.28337189 288.77377609 411.14380066 289.37773712 411 290 C399.09544144 290.13319307 387.19085633 290.26369845 375.28623486 290.39115143 C369.75306483 290.45046691 364.21990615 290.51056854 358.68676758 290.57275391 C344.84545234 290.72784428 331.00410734 290.86612282 317.16234589 290.97497559 C315.03970668 290.99177255 312.91707172 291.00911377 310.79444122 291.02697754 C304.62696494 291.07841318 298.45960303 291.11916664 292.29195595 291.14305115 C290.39375256 291.15179245 288.49556151 291.16392318 286.59740257 291.17958069 C283.99887057 291.20019909 281.40060457 291.20827911 278.80200195 291.21289062 C278.03440615 291.22162201 277.26681034 291.23035339 276.47595406 291.23934937 C271.22851656 291.22851656 271.22851656 291.22851656 269 289 C268.03998838 283.03060444 267.05156385 275.74214366 268.625 269.8125 C272.61736844 265.08469526 278.1667006 264.4840689 284 263 C286.66174243 262.23452729 289.30012873 261.40764266 291.9375 260.5625 C293.14277344 260.19253906 294.34804688 259.82257812 295.58984375 259.44140625 C300.23508913 257.47795202 303.84297762 255.62874622 305.91189194 250.92818832 C307.9422623 244.33954876 308.41828838 238.34277581 308.35644531 231.47363281 C308.35951187 229.81269844 308.35951187 229.81269844 308.36264038 228.11820984 C308.36563261 224.47967663 308.34720172 220.841604 308.328125 217.203125 C308.32506157 214.64695345 308.32318989 212.09078022 308.32244873 209.53460693 C308.31785362 204.17843776 308.30386827 198.82242239 308.28125 193.46630859 C308.25256859 186.6620175 308.2420387 179.85783089 308.2375679 173.05348587 C308.23310289 166.49918542 308.21785408 159.94490888 308.203125 153.390625 C308.20124428 152.16886818 308.19936356 150.94711136 308.19742584 149.6883316 C308.17365728 137.72400743 308.08037496 125.77379121 307.56152344 113.81933594 C307.50619886 112.5099172 307.50619886 112.5099172 307.44975662 111.17404556 C306.49426995 91.6670403 301.16478228 74.68073318 286.9375 60.875 C274.50071918 50.31427595 259.08445111 46.2682133 242.984375 46.65234375 C222.12047405 48.47282138 199.671734 56.83652311 184 71 C182.49822585 74.00354831 182.85338432 77.08267981 182.875 80.375 C182.87853674 81.10362873 182.88207348 81.83225746 182.88571739 82.58296585 C182.92804595 87.18926688 183.07264312 91.76920231 183.35594749 96.36662674 C184.17496165 109.8596735 184.16696479 123.35859588 184.19923019 136.87152863 C184.21011246 141.29441561 184.2303952 145.71723154 184.25234985 150.14007568 C184.31364131 162.69898288 184.36842981 175.25787806 184.40136719 187.81689453 C184.41973677 194.79175321 184.44867387 201.7664847 184.4893719 208.7412498 C184.51034737 212.415537 184.52588623 216.08966498 184.52817917 219.7640152 C184.53073296 223.84838981 184.55622456 227.93231715 184.58349609 232.01660156 C184.58048996 233.21876816 184.57748383 234.42093475 184.5743866 235.65953064 C184.6469481 242.97262975 184.91662096 249.53119857 190 255.25 C198.82447222 260.3976088 208.74666515 262.20264373 218.64624023 264.24975586 C219.58024658 264.44835205 220.51425293 264.64694824 221.4765625 264.8515625 C222.32299316 265.02510254 223.16942383 265.19864258 224.04150391 265.37744141 C224.68780762 265.58288574 225.33411133 265.78833008 226 266 C227.81948976 269.63897951 227.18470453 273.93159288 227.1875 277.9375 C227.19974609 278.85724609 227.21199219 279.77699219 227.22460938 280.72460938 C227.22654297 281.60826172 227.22847656 282.49191406 227.23046875 283.40234375 C227.23457764 284.21179443 227.23868652 285.02124512 227.24291992 285.85522461 C227 288 227 288 225 291 C222.52062035 291.36914349 222.52062035 291.36914349 219.33065796 291.36076355 C218.1246846 291.36488754 216.91871124 291.36901154 215.67619324 291.3732605 C214.33279197 291.3626424 212.98939295 291.35173796 211.64599609 291.34057617 C210.23685219 291.33973031 208.82770697 291.34020424 207.41856384 291.34190369 C203.58604479 291.34276667 199.75380572 291.3250922 195.92135191 291.30418181 C191.91882453 291.2854653 187.91629119 291.28366855 183.91372681 291.28010559 C176.33117271 291.2707703 168.74874791 291.24613654 161.16625082 291.21605712 C152.5351898 291.18255918 143.90412269 291.16603871 135.27301288 291.15097082 C117.51526853 291.11958821 99.75764465 291.06679899 82 291 C81.94570722 288.29139335 81.90618789 285.58389099 81.875 282.875 C81.85824219 282.11445313 81.84148437 281.35390625 81.82421875 280.5703125 C81.78470259 275.98643831 82.13992169 272.27948086 84 268 C86.55358812 265.44641188 88.29478172 265.34280416 91.8203125 264.6328125 C93.58375 264.26349609 93.58375 264.26349609 95.3828125 263.88671875 C97.85357387 263.3837976 100.32491995 262.8837395 102.796875 262.38671875 C113.74177441 260.35549172 113.74177441 260.35549172 122.63769531 254.13208008 C127.74513669 246.13865974 126.69617349 233.92062932 127.125 224.6875 C127.18753967 223.38566269 127.18753967 223.38566269 127.25134277 222.05752563 C128.10098851 203.69366609 128.21960167 185.32426018 128.2458725 166.94430923 C128.24993258 164.72436235 128.25742821 162.50445021 128.26568604 160.28451538 C130.06298764 105.9874386 130.06298764 105.9874386 107 59 C93.88544281 47.27206101 78.49261839 44.14646291 61.40771484 44.82958984 C44.67445007 46.01391542 28.24482133 53.45888366 14.125 62.125 C13.47716553 62.52025879 12.82933105 62.91551758 12.16186523 63.32275391 C7.54587228 66.29319402 3.14728423 69.51949338 1.35606861 74.9534893 C-0.33368325 82.90051633 -0.24917309 90.79931502 -0.18286133 98.87939453 C-0.17733646 100.46392553 -0.17267078 102.04845972 -0.16879272 103.63299561 C-0.15551721 107.9097507 -0.12921413 112.1863298 -0.09965348 116.46299982 C-0.07603274 120.04160214 -0.05864181 123.62022429 -0.04115504 127.198861 C0.00028929 135.64225029 0.05254707 144.0855253 0.11157227 152.52880859 C0.17217663 161.22547571 0.2143859 169.92209583 0.24759692 178.61890709 C0.27683182 186.10290041 0.3175303 193.58677218 0.36736089 201.07065666 C0.39695708 205.53313056 0.42225424 209.99552096 0.43648338 214.45807266 C0.45035267 218.65255985 0.47858391 222.84671305 0.51768875 227.04103851 C0.52963595 228.57603491 0.53659978 230.11107982 0.53809166 231.64612198 C0.46475527 244.55796894 0.46475527 244.55796894 6.25 255.8125 C13.03697576 261.21123071 20.9761799 262.14013595 29.3125 263.625 C31.66321887 264.05217228 34.0135049 264.48173568 36.36328125 264.9140625 C37.39751221 265.0992041 38.43174316 265.2843457 39.49731445 265.47509766 C42 266 42 266 44 267 C43.34 274.59 42.68 282.18 42 290 C-44.59311521 291.09837099 -44.59311521 291.09837099 -77.8125 291.125 C-79.46081314 291.12874634 -79.46081314 291.12874634 -81.14242554 291.13256836 C-84.16399528 291.13831383 -87.18546115 291.13708076 -90.20703125 291.1328125 C-91.50376266 291.13578842 -91.50376266 291.13578842 -92.82669067 291.13882446 C-96.13996473 291.12560781 -98.83446636 291.05517788 -102 290 C-102 282.74 -102 275.48 -102 268 C-94.14522998 264.63366999 -94.14522998 264.63366999 -89.78515625 263.75390625 C-88.38426758 263.45709961 -88.38426758 263.45709961 -86.95507812 263.15429688 C-85.03120679 262.76068917 -83.10672582 262.3700492 -81.18164062 261.98242188 C-74.20628443 260.49697386 -67.74999141 258.82235961 -62.625 253.5625 C-58.13072309 246.47537103 -57.81304869 238.93538994 -57.45239258 230.76513672 C-57.41049459 229.81768019 -57.36859659 228.87022366 -57.32542896 227.89405632 C-56.74328565 213.19067496 -56.79349684 198.47047233 -56.76171875 183.7578125 C-56.75765753 182.13896547 -56.75354029 180.52011857 -56.74936867 178.90127182 C-56.73045456 171.31303577 -56.71617589 163.72480881 -56.7077567 156.13655388 C-56.69792691 147.42848345 -56.67140192 138.72066326 -56.63125581 130.01268113 C-56.60108569 123.23339798 -56.58628845 116.45418691 -56.58297569 109.67483795 C-56.58063371 105.64391079 -56.57177846 101.61325548 -56.54651451 97.58240128 C-56.52320118 93.80474193 -56.51901325 90.02753343 -56.52927589 86.24982071 C-56.52976995 84.86957291 -56.52348807 83.48930244 -56.50971985 82.10912323 C-56.43652298 74.33471638 -56.6064842 68.56032745 -61 62 C-62.72730843 60.21016236 -62.72730843 60.21016236 -64.71557617 59.22680664 C-65.4132309 58.84098419 -66.11088562 58.45516174 -66.8296814 58.05764771 C-70.35053511 56.34185223 -73.90627168 54.80441237 -77.55078125 53.37109375 C-79.15178115 52.72222339 -80.75269003 52.0731284 -82.35351562 51.42382812 C-84.84482364 50.42370398 -87.33761207 49.42751697 -89.83227539 48.43579102 C-92.26349493 47.46601221 -94.68852317 46.48189482 -97.11328125 45.49609375 C-98.23359489 45.05842934 -98.23359489 45.05842934 -99.37654114 44.61192322 C-103.24412898 43.0315338 -106.07743339 41.82624388 -108 38 C-108.16009232 34.63806138 -108.23643382 32.98927687 -107 30 C-101.18037418 24.16108961 -92.26996296 23.04834397 -84.5625 21.37109375 C-83.15463746 21.05288924 -81.74709033 20.73328638 -80.33984375 20.41236877 C-76.64669299 19.57381065 -72.94982405 18.75302532 -69.25177002 17.93640137 C-64.80590704 16.95137754 -60.36462535 15.94595233 -55.92274475 14.94315434 C-52.45559324 14.16076231 -48.98789711 13.38125607 -45.51782227 12.61192322 C-38.77429867 11.10971775 -32.04875125 9.55102262 -25.34326172 7.88793945 C-24.35104866 7.64346022 -24.35104866 7.64346022 -23.33879089 7.39404202 C-18.45473693 6.16895337 -13.78373874 4.6483634 -9.125 2.75 C-2.21033654 0 -2.21033654 0 0 0 Z " fill="#4F372A" transform="translate(204,2462)"/>
<path d="M0 0 C14.71784095 6.02358674 28.79425457 8.6028896 44.71728516 8.7199707 C46.30959961 8.7353186 46.30959961 8.7353186 47.93408203 8.75097656 C63.0045334 8.58271653 75.72324196 4.10627102 86.65869141 -6.3972168 C88.21728516 -7.7175293 88.21728516 -7.7175293 90.21728516 -7.7175293 C92.70628101 6.46085781 94.40307472 20.95028385 85.65478516 33.47387695 C79.85373797 40.77247709 73.54300524 45.48906299 64.21728516 47.2824707 C55.20734686 47.7875911 43.49658123 48.42211874 35.21728516 44.2824707 C35.41064453 44.9630957 35.60400391 45.6437207 35.80322266 46.3449707 C43.96489418 76.72901519 42.20463061 109.9814903 26.45556641 137.63793945 C8.61215635 167.5095421 -22.14570915 184.34468844 -55.06591797 192.65698242 C-63.94537265 194.70129972 -73.03023714 195.8082101 -82.08740234 196.7277832 C-91.15699967 197.71556113 -97.01562568 199.12901342 -103.22021484 205.9699707 C-106.22922024 210.42329869 -106.27281901 213.99825672 -105.78271484 219.2824707 C-104.08887155 224.007402 -102.02192793 226.60992332 -97.78271484 229.2824707 C-92.20605269 231.50672566 -86.54771136 232.88988794 -80.60693359 233.72387695 C-79.77844406 233.84404678 -78.94995453 233.96421661 -78.09635925 234.08802795 C-60.62676282 236.50478639 -43.0150275 237.99082857 -25.46801758 239.72753906 C7.79767221 243.02665991 7.79767221 243.02665991 22.39306641 245.28637695 C23.3358696 245.42792709 24.27867279 245.56947723 25.25004578 245.71531677 C41.94954915 248.47270196 56.27284065 255.21095764 68.21728516 267.2824707 C68.84119141 267.87286133 69.46509766 268.46325195 70.10791016 269.0715332 C83.21101771 282.46975579 87.6210809 302.27854999 87.42822266 320.38793945 C85.63087611 353.57228214 68.7395369 382.83641814 44.37182617 404.78271484 C5.34685783 438.86921855 -45.08408884 455.44313931 -96.54443359 452.00512695 C-128.3259669 449.30517124 -162.44764031 439.13230309 -183.69677734 414.05200195 C-195.79861096 397.98421163 -204.56997412 377.76502934 -202.78271484 357.2824707 C-199.73269679 337.54705974 -185.64282365 326.04831521 -170.78271484 314.2824707 C-169.51794424 313.25336745 -168.25504133 312.22196609 -166.99365234 311.1887207 C-160.65874904 306.00165539 -154.29961175 300.86470252 -147.78271484 295.9074707 C-142.93818171 292.21524869 -138.28219008 288.38773209 -133.78271484 284.2824707 C-136.57467207 281.25083269 -139.16963745 279.37296601 -142.84521484 277.5324707 C-158.67132544 269.12286854 -169.09561078 258.34378289 -174.78271484 241.2824707 C-175.02099609 239.1965332 -175.02099609 239.1965332 -175.09521484 236.9074707 C-175.13259766 236.15723633 -175.16998047 235.40700195 -175.20849609 234.6340332 C-174.46036219 230.5021377 -172.15631897 228.26186038 -168.79125977 225.86254883 C-166.29603258 224.26317188 -163.76789247 222.73437756 -161.22021484 221.2199707 C-159.33302811 220.07490829 -157.44632014 218.92905653 -155.56005859 217.7824707 C-154.60212402 217.20368164 -153.64418945 216.62489258 -152.65722656 216.02856445 C-148.1709843 213.3034409 -143.72390463 210.51773233 -139.28271484 207.7199707 C-138.50081787 207.23197998 -137.7189209 206.74398926 -136.91333008 206.24121094 C-129.40463301 202.02413398 -129.40463301 202.02413398 -124.78271484 195.2824707 C-127.75845982 192.84459512 -130.57044813 191.45616643 -134.15771484 190.0949707 C-156.43351126 180.96243616 -173.13632148 165.60953329 -182.91455078 143.36743164 C-194.04568535 116.63517933 -194.22275256 84.29134712 -183.55615234 57.3371582 C-172.05426965 30.20617057 -148.43514216 12.15249769 -121.80126953 1.03833008 C-81.71584848 -14.89546796 -40.25507564 -16.49284767 0 0 Z M-100.78271484 19.2824707 C-102.12849609 19.88575195 -102.12849609 19.88575195 -103.50146484 20.5012207 C-117.61283365 27.47937011 -125.38276963 39.19020087 -130.68115234 53.6496582 C-131.91844859 57.73010327 -132.83212517 61.77831869 -133.59521484 65.9699707 C-133.71920654 66.64616455 -133.84319824 67.3223584 -133.97094727 68.01904297 C-137.847167 91.71340017 -131.56049879 119.99973165 -118.78271484 140.2824707 C-116.04142116 143.93433397 -113.08327667 147.13379314 -109.78271484 150.2824707 C-108.82945313 151.24733398 -108.82945313 151.24733398 -107.85693359 152.23168945 C-97.13628171 162.46403008 -81.67024245 167.31678132 -67.03271484 167.7199707 C-53.75352133 167.21112645 -42.34171112 162.62904484 -32.78271484 153.2824707 C-16.9544205 134.08267869 -14.45617249 108.2216806 -15.78271484 84.2824707 C-17.94111954 63.70567924 -24.99485638 42.52441128 -41.40771484 28.98950195 C-57.45554466 17.45512427 -81.87685236 10.49523884 -100.78271484 19.2824707 Z M-133.78271484 314.2824707 C-143.76702644 325.53136374 -149.17834829 337.96128161 -148.99365234 353.0324707 C-147.87546116 370.2608979 -138.4356045 382.10665961 -126.41162109 393.53637695 C-112.30504675 405.69229515 -93.03336381 412.11457594 -74.78271484 414.2824707 C-73.89068359 414.39333008 -72.99865234 414.50418945 -72.07958984 414.6184082 C-43.41563298 417.58088419 -12.5040913 414.57350305 11.21728516 396.7824707 C12.56840732 395.63645247 13.90263595 394.47015178 15.21728516 393.2824707 C15.88888672 392.71399414 16.56048828 392.14551758 17.25244141 391.55981445 C27.72396957 382.05675132 34.80109971 367.44629572 35.55712891 353.37231445 C35.81126345 344.76460922 35.91662004 336.23084084 32.21728516 328.2824707 C31.86537109 327.52063477 31.51345703 326.75879883 31.15087891 325.97387695 C24.19252782 312.3557179 12.80502982 304.83421931 -1.40771484 300.0324707 C-43.39121829 286.6252242 -100.96158349 279.87883542 -133.78271484 314.2824707 Z " fill="#4E372A" transform="translate(1574.78271484375,2474.717529296875)"/>
<path d="M0 0 C3.64391728 3.05146412 7.01397291 6.3295143 10.35400391 9.70849609 C11.46388672 10.80291016 11.46388672 10.80291016 12.59619141 11.91943359 C39.64624159 40.23252114 39.74449655 84.06911502 39.96324921 120.58621955 C39.99017277 124.44666816 40.03536531 128.30690212 40.07910156 132.16719055 C40.19580745 142.74003689 40.28634778 153.31307031 40.37484741 163.88618469 C40.45664707 173.6488243 40.54422435 183.41130646 40.65568352 193.17365867 C40.70706481 197.74454243 40.7445557 202.31525664 40.77110291 206.88634908 C40.7904833 209.7209478 40.82199023 212.55531895 40.85675812 215.38976669 C40.87677891 217.31921034 40.88221212 219.24878826 40.887146 221.17832947 C40.99010795 231.18614527 40.99010795 231.18614527 46.10009766 239.49365234 C49.09529522 241.10804826 52.17270742 242.1669927 55.41650391 243.14599609 C56.10317139 243.3591748 56.78983887 243.57235352 57.49731445 243.79199219 C63.95481592 245.72729434 70.5121943 247.09085136 77.14526367 248.27661133 C77.91153076 248.42171143 78.67779785 248.56681152 79.46728516 248.71630859 C80.48495972 248.89637451 80.48495972 248.89637451 81.52319336 249.08007812 C83.84481312 249.87696428 84.88019835 250.74828698 86.35400391 252.70849609 C86.7421875 254.71386719 86.7421875 254.71386719 86.75244141 256.98193359 C86.75630859 257.80693359 86.76017578 258.63193359 86.76416016 259.48193359 C86.74675781 260.76970703 86.74675781 260.76970703 86.72900391 262.08349609 C86.74060547 262.93427734 86.75220703 263.78505859 86.76416016 264.66162109 C86.74181929 269.44256574 86.58932831 272.91687156 83.35400391 276.70849609 C80.11636688 278.75032171 77.53449443 278.96938724 73.74354553 279.00042725 C72.60094772 279.01448105 71.45834991 279.02853485 70.28112793 279.04301453 C69.03166382 279.0483168 67.78219971 279.05361908 66.49487305 279.05908203 C65.17583481 279.07234024 63.85679657 279.08559845 62.49778748 279.09925842 C58.88213372 279.13510915 55.26649845 279.15848516 51.65072942 279.17907619 C48.63128862 279.19749388 45.61191367 279.22223235 42.5925197 279.24704671 C35.46886971 279.30559097 28.34520003 279.35431298 21.22143555 279.39648438 C13.87432999 279.4401076 6.52744303 279.49817708 -0.81949705 279.56373191 C-7.12953687 279.61964176 -13.43960113 279.6676062 -19.74975306 279.7089808 C-23.51754008 279.73370143 -27.28525183 279.76118961 -31.05296135 279.79589081 C-34.59630545 279.82809386 -38.13957582 279.85031615 -41.6830349 279.86489677 C-43.60126876 279.8751868 -45.51944074 279.89548837 -47.43759155 279.91609192 C-48.58300919 279.91886642 -49.72842682 279.92164093 -50.90855408 279.92449951 C-52.39821387 279.93442995 -52.39821387 279.93442995 -53.9179678 279.944561 C-56.86398722 279.68963263 -59.00510209 279.02384076 -61.64599609 277.70849609 C-64.99781435 271.40085498 -64.83438003 260.63240533 -62.81787109 253.97412109 C-61.64599609 251.70849609 -61.64599609 251.70849609 -58.64599609 249.70849609 C-56.81119826 249.24737199 -54.95679355 248.86201249 -53.09521484 248.52490234 C-52.00402344 248.31929687 -50.91283203 248.11369141 -49.78857422 247.90185547 C-47.49721906 247.48347914 -45.20555438 247.0667942 -42.91357422 246.65185547 C-32.97464051 244.9540686 -32.97464051 244.9540686 -25.33349609 238.83349609 C-22.30132028 233.21835569 -22.50183567 227.82450876 -22.51660156 221.5925293 C-22.51484924 220.68080963 -22.51309692 219.76908997 -22.5112915 218.82974243 C-22.50688371 215.80623478 -22.50981431 212.78278563 -22.51318359 209.75927734 C-22.51250858 207.62827035 -22.51153691 205.49726344 -22.51028442 203.36625671 C-22.50880753 198.8780342 -22.5109556 194.38983153 -22.515625 189.90161133 C-22.52122347 184.25515672 -22.51800919 178.60875024 -22.51218796 172.96229744 C-22.49448876 152.78427251 -22.48864093 132.60959677 -23.09130859 112.43896484 C-23.14942215 110.49102776 -23.14942215 110.49102776 -23.20870972 108.5037384 C-23.93772586 86.99048077 -24.75974908 66.35489444 -40.39599609 49.77099609 C-55.44055862 35.98014711 -73.2221739 33.93219264 -92.66601562 34.52490234 C-109.34096889 35.55223029 -128.68929425 43.41487922 -140.98974609 54.78271484 C-145.9533868 60.55411784 -147.76790928 67.93968671 -147.77539062 75.41918945 C-147.77849747 76.34570816 -147.78160431 77.27222687 -147.7848053 78.2268219 C-147.78282639 79.24042282 -147.78084747 80.25402374 -147.77880859 81.29833984 C-147.78017319 82.38996933 -147.78153778 83.48159882 -147.78294373 84.60630798 C-147.78500516 88.28623266 -147.77853967 91.96607923 -147.77099609 95.64599609 C-147.76977753 96.92017395 -147.76855896 98.19435181 -147.76730347 99.50714111 C-147.74011266 124.23936379 -147.51195061 148.96998374 -147.23983002 173.7005806 C-147.20862177 176.57193297 -147.17878704 179.44329694 -147.14923096 182.31466675 C-147.10162052 186.89449802 -147.04920525 191.47425165 -146.99318123 196.0539875 C-146.97303491 197.74547323 -146.95421828 199.43697544 -146.93688774 201.12849236 C-147.70790474 222.03764625 -147.70790474 222.03764625 -142.64599609 241.70849609 C-138.7368219 243.87147667 -134.22925105 244.64475158 -129.89599609 245.64599609 C-129.16316406 245.81784424 -128.43033203 245.98969238 -127.67529297 246.16674805 C-121.46027176 247.59157472 -115.20996158 248.73780457 -108.91650391 249.75708008 C-103.7451622 250.60932999 -103.7451622 250.60932999 -102.64599609 251.70849609 C-102.36670169 254.95000388 -102.41416429 258.20638912 -102.39599609 261.45849609 C-102.37537109 262.36599609 -102.35474609 263.27349609 -102.33349609 264.20849609 C-102.28212117 272.99360813 -102.28212117 272.99360813 -105.64599609 276.70849609 C-109.31911341 278.51036294 -112.30858502 278.96708679 -116.37670898 279.00042725 C-117.52068146 279.01448105 -118.66465393 279.02853485 -119.84329224 279.04301453 C-121.08916107 279.0483168 -122.33502991 279.05361908 -123.61865234 279.05908203 C-124.93783661 279.07234024 -126.25702087 279.08559845 -127.61618042 279.09925842 C-131.22764296 279.13506475 -134.83908707 279.15846925 -138.45066452 279.17907619 C-141.46767002 279.19750949 -144.48460997 279.22224379 -147.50156879 279.24704671 C-154.61900253 279.30555822 -161.73645597 279.35429078 -168.85400391 279.39648438 C-176.19374569 279.44012493 -183.5332692 279.49820021 -190.87284565 279.56373191 C-197.17865936 279.61963971 -203.48449754 279.6676038 -209.79042339 279.7089808 C-213.55484215 279.7336981 -217.31918549 279.76118405 -221.08352661 279.79589081 C-225.28011341 279.83407275 -229.47662646 279.85560859 -233.67333984 279.87548828 C-234.91920868 279.88888748 -236.16507751 279.90228668 -237.44869995 279.91609192 C-238.59267242 279.91886642 -239.7366449 279.92164093 -240.9152832 279.92449951 C-242.40299477 279.93442995 -242.40299477 279.93442995 -243.92076111 279.944561 C-246.8687936 279.68919696 -249.00130747 279.02016799 -251.64599609 277.70849609 C-254.49166524 273.62131554 -254.05075723 269.06905846 -254.08349609 264.27099609 C-254.11636719 263.42472656 -254.14923828 262.57845703 -254.18310547 261.70654297 C-254.21770603 257.68973272 -253.99919266 255.30436512 -251.92333984 251.80224609 C-246.90164179 248.59410526 -241.56917633 247.77039458 -235.77099609 246.64599609 C-223.35792766 244.63761918 -223.35792766 244.63761918 -213.77099609 237.20849609 C-211.61450112 232.41628504 -211.45211818 227.92683758 -211.34936523 222.7199707 C-211.33009665 221.91213953 -211.31082806 221.10430836 -211.29097557 220.27199745 C-211.22844859 217.57253208 -211.17321829 214.87297717 -211.11865234 212.17333984 C-211.07693038 210.24909928 -211.03518695 208.32485917 -210.99342346 206.40061951 C-210.52579689 184.12545732 -210.31426356 161.84710038 -210.11376953 139.5682373 C-210.07311249 135.14006235 -210.02920945 130.71192182 -209.9853878 126.28377724 C-209.8818004 115.80958948 -209.79008324 105.33541375 -209.71433067 94.86098671 C-209.6763246 89.82074106 -209.62331073 84.7812345 -209.54510784 79.74145222 C-209.49700752 76.51053014 -209.46585741 73.27942955 -209.43115234 70.04833984 C-209.4076622 68.96130264 -209.38417206 67.87426544 -209.35997009 66.75428772 C-209.30431422 59.32565559 -209.89742948 54.49925562 -215.31787109 48.99560547 C-218.87421442 46.31577173 -222.76866649 44.71839125 -226.89599609 43.11474609 C-227.67233398 42.80073853 -228.44867187 42.48673096 -229.24853516 42.16320801 C-231.71029038 41.1677908 -234.17724913 40.18643283 -236.64599609 39.20849609 C-239.90123065 37.91901057 -243.15013045 36.61511049 -246.39599609 35.30224609 C-247.50249512 34.87232361 -247.50249512 34.87232361 -248.63134766 34.43371582 C-253.41173635 32.49820787 -256.92392683 30.30782841 -260.64599609 26.70849609 C-261.73671819 23.4363298 -261.81886097 21.49599165 -261.08349609 18.14599609 C-257.35356889 11.82133693 -252.76640937 10.25301678 -246.01098633 8.49853516 C-240.09892336 7.11048932 -234.13922846 5.97701144 -228.17596436 4.83505249 C-210.5020301 1.43156043 -193.19746906 -2.65974814 -175.97802734 -7.92431641 C-175.22356323 -8.15469101 -174.46909912 -8.38506561 -173.69177246 -8.62242126 C-169.91787817 -9.77707188 -166.14805671 -10.9429915 -162.38378906 -12.12866211 C-161.00636414 -12.55669366 -159.62892348 -12.9846746 -158.25146484 -13.41259766 C-157.02580811 -13.79859131 -155.80015137 -14.18458496 -154.53735352 -14.58227539 C-151.64599609 -15.29150391 -151.64599609 -15.29150391 -149.64599609 -14.29150391 C-147.85726144 -8.63097107 -147.36901839 -3.53841343 -147.45068359 2.36474609 C-147.45351349 3.15248413 -147.45634338 3.94022217 -147.45925903 4.75183105 C-147.47034441 7.23754873 -147.495426 9.72288959 -147.52099609 12.20849609 C-147.53104099 13.90640751 -147.54016418 15.60432465 -147.54833984 17.30224609 C-147.57024538 21.43780523 -147.60469284 25.57308705 -147.64599609 29.70849609 C-146.69982422 28.90927734 -145.75365234 28.11005859 -144.77880859 27.28662109 C-105.94423424 -5.12194532 -46.76027387 -36.68968389 0 0 Z " fill="#4E362A" transform="translate(1260.64599609375,2476.29150390625)"/>
<path d="M0 0 C34.02933566 -0.61411752 69.60154583 8.45383485 95.6796875 31.12109375 C96.49953125 31.80816406 97.319375 32.49523438 98.1640625 33.203125 C126.89413246 57.96273498 139.69764407 95.70403339 142.51855469 132.60009766 C145.33789952 176.71002906 132.18982562 218.2560049 103.0546875 251.49609375 C74.91418771 281.93677352 33.31170543 296.1472635 -7.3203125 298.12109375 C-31.06807887 299.04962016 -53.99005561 294.63302146 -75.3203125 284.12109375 C-76.29097656 283.64929687 -77.26164063 283.1775 -78.26171875 282.69140625 C-110.18259158 266.24309623 -130.33787808 238.32432829 -141.14770508 204.66040039 C-144.37573572 194.24511126 -146.8710951 183.9344851 -148.3203125 173.12109375 C-148.45953125 172.14462891 -148.45953125 172.14462891 -148.6015625 171.1484375 C-153.37602239 134.24868318 -146.95299178 92.41680617 -124.3203125 62.12109375 C-123.70671875 61.28578125 -123.093125 60.45046875 -122.4609375 59.58984375 C-109.22463859 42.30608154 -92.52690707 30.03906497 -73.3203125 20.12109375 C-72.65306152 19.77449707 -71.98581055 19.42790039 -71.29833984 19.07080078 C-49.12774291 7.7107043 -24.93706852 0.90946956 0 0 Z M-62.85546875 49.43359375 C-85.82033231 73.38322848 -88.00486122 109.94303838 -87.49771118 141.30027771 C-86.69642592 176.91990301 -73.48626891 215.92565896 -48.62890625 241.9375 C-31.44074155 258.3250515 -10.04279922 266.6858233 13.51123047 266.54077148 C29.79972072 266.10594569 43.45688504 259.93814681 55.30078125 248.68359375 C73.19947692 229.40355375 76.52036555 204.17971579 79.5546875 178.99609375 C79.68705811 177.91223389 79.81942871 176.82837402 79.95581055 175.71166992 C80.55817988 170.23946576 80.64173818 165.57271424 79.6796875 160.12109375 C79.52990452 158.23313159 79.40063139 156.34349575 79.28515625 154.453125 C76.80330761 115.04355037 66.23184601 77.76054198 36.16015625 50.39453125 C8.08753048 26.24762887 -35.26796916 24.26903326 -62.85546875 49.43359375 Z " fill="#4E362A" transform="translate(814.3203125,2461.87890625)"/>
<path d="M0 0 C14.69027701 13.93626695 25.28147801 31.19027381 31.9921875 50.25 C32.22180176 50.9006543 32.45141602 51.55130859 32.68798828 52.22167969 C39.66759767 72.546861 41.9812942 95.20438216 40.3671875 116.5625 C40.23340698 118.36013794 40.23340698 118.36013794 40.09692383 120.1940918 C36.68043732 160.87355725 21.83724445 197.89982612 -9.81689453 224.78662109 C-42.99330829 251.88714689 -85.90290452 264.34395633 -128.4453125 260.5625 C-158.03962131 257.55437954 -186.07308466 246.55444402 -208.0078125 226.25 C-208.81734375 225.52167969 -209.626875 224.79335937 -210.4609375 224.04296875 C-235.48679221 200.46091335 -249.62416501 161.20549102 -251.18481445 127.41796875 C-251.81022717 86.79355047 -246.77991892 45.31440424 -217.32495117 14.62695312 C-215.89129293 13.16267395 -214.44979615 11.70608125 -213.0078125 10.25 C-212.33234375 9.51394531 -211.656875 8.77789063 -210.9609375 8.01953125 C-201.54501541 -2.06033406 -189.14054981 -9.39674099 -177.0078125 -15.75 C-176.38632324 -16.07709961 -175.76483398 -16.40419922 -175.12451172 -16.74121094 C-118.55872329 -46.03140197 -48.1106317 -44.42885345 0 0 Z M-167.0078125 15.25 C-189.79767282 42.19072805 -190.99749821 82.7655158 -188.80566406 116.34716797 C-185.44557322 150.33480381 -169.93603075 187.80836316 -144.234375 210.72265625 C-125.63228398 225.57884675 -103.51535909 231.33844261 -80.0078125 229.25 C-64.96581366 227.17182911 -51.78143005 218.39265546 -42.078125 206.98046875 C-30.00528013 190.80285663 -26.21010344 171.85882724 -23.56982422 152.30908203 C-23.2522206 149.95861646 -22.92201117 147.61016668 -22.58984375 145.26171875 C-22.37949804 143.75270301 -22.16983582 142.24359179 -21.9609375 140.734375 C-21.81570648 139.69225861 -21.81570648 139.69225861 -21.6675415 138.62908936 C-21.24053531 135.45184371 -21.0078125 132.46636203 -21.0078125 129.25 C-21.6678125 129.25 -22.3278125 129.25 -23.0078125 129.25 C-22.96140625 127.96351563 -22.915 126.67703125 -22.8671875 125.3515625 C-21.94573728 87.86753045 -31.54181495 49.46958877 -57.7109375 21.5859375 C-58.46890625 20.81507813 -59.226875 20.04421875 -60.0078125 19.25 C-60.76578125 18.47914063 -61.52375 17.70828125 -62.3046875 16.9140625 C-79.67170123 0.28486308 -101.48549467 -5.55079351 -124.9921875 -5.12890625 C-141.64724704 -4.39874258 -155.55631535 3.34868954 -167.0078125 15.25 Z " fill="#4E372A" transform="translate(1949.0078125,2498.75)"/>
<path d="M0 0 C0.99 0 1.98 0 3 0 C3.06731323 1.42989258 3.06731323 1.42989258 3.13598633 2.88867188 C5.41800778 50.68490847 10.03411142 98.26056636 20.55584717 145.01599121 C20.98952245 146.95319728 21.41117279 148.89308293 21.83251953 150.83300781 C26.56063282 172.18343796 34.68748961 191.46150206 44.0958252 211.10586548 C44.95810384 212.91223273 45.80513673 214.72585415 46.65136719 216.53979492 C49.19386396 221.86076142 51.39898967 226.21634293 56 230.0625 C56.93714844 230.8565625 57.87429688 231.650625 58.83984375 232.46875 C59.89097002 233.31531274 60.94451117 234.15888275 62 235 C62.90903076 235.73476562 62.90903076 235.73476562 63.83642578 236.484375 C70.58028935 242.26044387 70.58028935 242.26044387 78 247 C77.42217346 250.72070942 76.39989825 253.42539583 74.48828125 256.66015625 C73.98047119 257.53003174 73.47266113 258.39990723 72.94946289 259.29614258 C72.40926514 260.20904053 71.86906738 261.12193848 71.3125 262.0625 C70.21158138 263.96240711 69.11260501 265.86344107 68.015625 267.765625 C67.49033203 268.67505859 66.96503906 269.58449219 66.42382812 270.52148438 C57.64378208 285.80526823 53.47241654 300.65106111 52 318.0625 C51.84716029 319.75392751 51.69314503 321.44524912 51.53808594 323.13647461 C51.28869908 325.86476494 51.04143238 328.59314539 50.80145264 331.32228088 C50.27901317 337.20729828 49.66837358 343.07595359 48.99391174 348.94541931 C41.95136727 410.45947353 43.77776028 472.41094499 49 534 C45.07718307 533.26057409 41.56686965 532.178374 37.8359375 530.7421875 C36.0418042 530.05624512 36.0418042 530.05624512 34.21142578 529.35644531 C32.93246976 528.86301217 31.65366396 528.3691895 30.375 527.875 C27.7559404 526.86527554 25.13615342 525.85746879 22.515625 524.8515625 C21.86912994 524.60313599 21.22263489 524.35470947 20.55654907 524.09875488 C16.76296244 522.64886298 12.95403208 521.26898306 9.109375 519.9609375 C8.25424316 519.66590332 7.39911133 519.37086914 6.51806641 519.06689453 C4.98428872 518.54332586 3.44516334 518.03502422 1.89990234 517.54638672 C-4.02008587 515.50170424 -9.14232666 511.71534668 -12 506 C-12.97605313 499.91440701 -12.99363622 494.07687507 -12.83334351 487.92375183 C-11.16687305 419.82605766 -19.18211004 347.06349814 -40.07446289 282.1003418 C-40.48091034 280.82435875 -40.48091034 280.82435875 -40.89556885 279.52259827 C-41.39447834 277.97445864 -41.90722933 276.43066806 -42.43768311 274.89305115 C-45.07869721 266.79831299 -42.56892408 260.08812199 -40.15625 252.29296875 C-39.56642867 250.34471424 -38.97768945 248.39613188 -38.38989258 246.44726562 C-37.92675156 244.91646362 -37.92675156 244.91646362 -37.45425415 243.35473633 C-32.23563306 226.03376759 -27.50577318 208.71282294 -23.8125 191 C-23.63477051 190.1482016 -23.45704102 189.2964032 -23.27392578 188.41879272 C-22.1424495 182.95350995 -21.0581797 177.47990243 -20 172 C-19.85808228 171.26969574 -19.71616455 170.53939148 -19.56994629 169.78695679 C-18.0590458 161.98809535 -16.60942321 154.19752114 -15.625 146.3125 C-15.50688965 145.3834082 -15.3887793 144.45431641 -15.26708984 143.49707031 C-10.54294396 105.55094208 -6.90682258 67.48073602 -3.27615356 29.41802979 C-2.9975934 26.49946239 -2.71791371 23.58100262 -2.43829346 20.66253662 C-2.25688773 18.75974632 -2.07833859 16.85668434 -1.89990234 14.95361328 C-1.74062256 13.28081299 -1.74062256 13.28081299 -1.578125 11.57421875 C-1.48950195 10.63151123 -1.40087891 9.68880371 -1.30957031 8.7175293 C-0.9760782 5.79000507 -0.50766253 2.90195936 0 0 Z " fill="#CECDB7" transform="translate(1503,1724)"/>
<path d="M0 0 C0.99 0 1.98 0 3 0 C3.06731323 1.42989258 3.06731323 1.42989258 3.13598633 2.88867188 C5.41800778 50.68490847 10.03411142 98.26056636 20.55584717 145.01599121 C20.98952245 146.95319728 21.41117279 148.89308293 21.83251953 150.83300781 C26.56446964 172.20076364 34.78318616 191.32761692 44.07385254 211.02911377 C45.56300551 214.19810273 47.02695278 217.37847581 48.4921875 220.55859375 C48.97800293 221.61232178 49.46381836 222.6660498 49.96435547 223.75170898 C50.30611816 224.49364502 50.64788086 225.23558105 51 226 C50.24452881 226.75152344 49.48905762 227.50304688 48.71069336 228.27734375 C47.81616455 229.17582031 46.92163574 230.07429688 46 231 C45.41549072 231.57878906 44.83098145 232.15757812 44.22875977 232.75390625 C37.41216094 240.45989802 35.03713267 250.40675545 31.9375 260 C31.2851006 261.97263376 30.63076997 263.94462976 29.97460938 265.91601562 C28.62772748 269.96761357 27.28910784 274.02179671 25.95654297 278.078125 C23.04751797 286.91149438 20.02103949 295.70446764 17 304.5 C15.8526668 307.84323777 14.7067808 311.18696624 13.5625 314.53125 C13.27625259 315.367771 12.99000519 316.20429199 12.69508362 317.06616211 C10.77517929 322.69134675 8.88809357 328.32683596 7.0168457 333.96838379 C5.67719526 338.00357818 4.32770371 342.035452 2.97753906 346.06713867 C2.33398167 347.99797159 1.69518048 349.93039735 1.06152344 351.86450195 C-6.78426604 375.80255107 -6.78426604 375.80255107 -17 383 C-17.66 383 -18.32 383 -19 383 C-19.12146896 382.23549026 -19.24293793 381.47098053 -19.36808777 380.68330383 C-20.93173483 370.88580968 -22.54279938 361.09669638 -24.1875 351.3125 C-24.31875149 350.53045952 -24.45000298 349.74841904 -24.58523178 348.94268036 C-28.41523782 326.19743714 -33.00212241 304.11847973 -40.07299805 282.1184082 C-40.3441745 281.2651445 -40.61535095 280.4118808 -40.89474487 279.53276062 C-41.39336163 277.98067399 -41.90631052 276.43307009 -42.43777466 274.891922 C-45.07952802 266.7982497 -42.56863424 260.08718553 -40.15625 252.29296875 C-39.56642867 250.34471424 -38.97768945 248.39613188 -38.38989258 246.44726562 C-37.92675156 244.91646362 -37.92675156 244.91646362 -37.45425415 243.35473633 C-32.23563306 226.03376759 -27.50577318 208.71282294 -23.8125 191 C-23.63477051 190.1482016 -23.45704102 189.2964032 -23.27392578 188.41879272 C-22.1424495 182.95350995 -21.0581797 177.47990243 -20 172 C-19.85808228 171.26969574 -19.71616455 170.53939148 -19.56994629 169.78695679 C-18.0590458 161.98809535 -16.60942321 154.19752114 -15.625 146.3125 C-15.50688965 145.3834082 -15.3887793 144.45431641 -15.26708984 143.49707031 C-10.54294396 105.55094208 -6.90682258 67.48073602 -3.27615356 29.41802979 C-2.9975934 26.49946239 -2.71791371 23.58100262 -2.43829346 20.66253662 C-2.25688773 18.75974632 -2.07833859 16.85668434 -1.89990234 14.95361328 C-1.74062256 13.28081299 -1.74062256 13.28081299 -1.578125 11.57421875 C-1.48950195 10.63151123 -1.40087891 9.68880371 -1.30957031 8.7175293 C-0.9760782 5.79000507 -0.50766253 2.90195936 0 0 Z " fill="#A8A987" transform="translate(1503,1724)"/>
<path d="M0 0 C3.18496697 0.58910176 4.93416382 1.52409395 7.3203125 3.6953125 C7.93382568 4.24356689 8.54733887 4.79182129 9.17944336 5.35668945 C9.82147705 5.94023193 10.46351074 6.52377441 11.125 7.125 C16.83830247 12.20991583 22.56890888 16.83870574 29 21 C28.42217346 24.72070942 27.39989825 27.42539583 25.48828125 30.66015625 C24.98055176 31.52987061 24.47282227 32.39958496 23.94970703 33.2956543 C23.40942871 34.20871338 22.86915039 35.12177246 22.3125 36.0625 C21.2102978 37.96502221 20.1100189 39.86866003 19.01171875 41.7734375 C18.48626465 42.68319336 17.96081055 43.59294922 17.41943359 44.53027344 C12.96074682 52.28811234 9.69549856 59.79120591 7.0625 68.3125 C5.22998282 74.23550055 3.71012696 78.38049001 -1.30256653 82.31761169 C-3.29646994 84.29384219 -4.01057975 85.941119 -4.9909668 88.56274414 C-5.32760345 89.45406036 -5.66424011 90.34537659 -6.01107788 91.26370239 C-6.33742218 92.1666806 -6.66376648 93.06965881 -7 94 C-7.29210358 94.80541229 -7.58420715 95.61082458 -7.88516235 96.44064331 C-8.77996893 98.95362143 -9.65257 101.47337791 -10.51953125 103.99609375 C-10.85110229 104.95484909 -11.18267334 105.91360443 -11.52429199 106.90141296 C-12.24458024 108.98558495 -12.96370772 111.07015838 -13.68179321 113.15509033 C-14.83559354 116.50453989 -15.99307748 119.85269963 -17.15112305 123.20068359 C-21.58018681 136.01750388 -25.97431902 148.84583223 -30.34290504 161.6833744 C-31.89736346 166.24898069 -33.45532533 170.81339324 -35.01314831 175.37785244 C-36.53509093 179.83902858 -38.05037956 184.30239613 -39.56088448 188.76745701 C-40.51420193 191.58064025 -41.47345837 194.39177344 -42.43418884 197.20243263 C-43.08989232 199.12667481 -43.73837968 201.05337129 -44.38659668 202.98014832 C-51.53787671 223.84272887 -51.53787671 223.84272887 -59 230 C-59.99 230 -60.98 230 -62 230 C-62.6572319 222.10661319 -63.30953236 214.21284016 -63.95575714 206.31854534 C-64.25606225 202.6518603 -64.55798463 198.98532424 -64.86376953 195.3190918 C-65.15949721 191.77268963 -65.45075924 188.22594504 -65.73908997 184.6789341 C-65.90226363 182.68542072 -66.0699114 180.69227516 -66.2376709 178.69914246 C-66.69150932 173.07531283 -67.10458731 167.44717639 -67.29882812 161.80786133 C-67.3317395 160.96032791 -67.36465088 160.11279449 -67.39855957 159.23957825 C-66.72417133 155.45006885 -64.02700159 153.97476304 -61.07595825 151.75575256 C-53.46844929 145.32166202 -51.17960592 132.23815481 -48.1328125 123.03515625 C-47.57568857 121.37101122 -47.01784656 119.70710645 -46.45933533 118.04342651 C-45.28150979 114.53106772 -44.10792061 111.01733551 -42.93777466 107.50241089 C-41.11990051 102.04310767 -39.29079658 96.58761472 -37.45874023 91.13305664 C-37.15663856 90.23356639 -36.85453688 89.33407614 -36.5432806 88.40732861 C-35.93616157 86.59982228 -35.32899517 84.79233185 -34.72178078 82.98485756 C-33.8191016 80.29708802 -32.91722921 77.60904893 -32.01554871 74.92094421 C-27.7225179 62.12585601 -23.40616543 49.33943958 -18.98162842 36.58908081 C-18.3752675 34.83979861 -17.77157028 33.08959049 -17.17071533 31.33840942 C-16.36172638 28.98220963 -15.54378671 26.62933496 -14.72265625 24.27734375 C-14.50093246 23.62692108 -14.27920868 22.97649841 -14.05076599 22.30636597 C-11.68700069 15.61833301 -8.25219616 10.040172 -3.75 4.5625 C-3.04359375 3.69753906 -2.3371875 2.83257813 -1.609375 1.94140625 C-1.07828125 1.30074219 -0.5471875 0.66007812 0 0 Z " fill="#C1C1A7" transform="translate(1552,1950)"/>
<path d="M0 0 C3.29927533 1.64963766 4.07586645 5.2602893 5.484375 8.515625 C5.82245178 9.28243591 6.16052856 10.04924683 6.5088501 10.83929443 C7.59536176 13.3068898 8.67294663 15.77826357 9.75 18.25 C10.8115075 20.67104993 11.87485986 23.09128226 12.93859863 25.51135254 C13.63292486 27.09103182 14.32653449 28.67102628 15.01940918 30.25134277 C17.92836591 36.87421763 20.93358624 43.44835953 24 50 C23.24452881 50.75152344 22.48905762 51.50304688 21.71069336 52.27734375 C20.81616455 53.17582031 19.92163574 54.07429688 19 55 C18.41549072 55.57878906 17.83098145 56.15757813 17.22875977 56.75390625 C10.41216094 64.45989802 8.03713267 74.40675545 4.9375 84 C4.2851006 85.97263376 3.63076997 87.94462976 2.97460938 89.91601562 C1.62772748 93.96761357 0.28910784 98.02179671 -1.04345703 102.078125 C-3.95248203 110.91149438 -6.97896051 119.70446764 -10 128.5 C-11.1473332 131.84323777 -12.2932192 135.18696624 -13.4375 138.53125 C-13.72374741 139.367771 -14.00999481 140.20429199 -14.30491638 141.06616211 C-16.22482071 146.69134675 -18.11190643 152.32683596 -19.9831543 157.96838379 C-21.32280474 162.00357818 -22.67229629 166.035452 -24.02246094 170.06713867 C-24.66601833 171.99797159 -25.30481952 173.93039735 -25.93847656 175.86450195 C-33.78426604 199.80255107 -33.78426604 199.80255107 -44 207 C-44.66 207 -45.32 207 -46 207 C-47.61456238 198.07531185 -49.2150026 189.14824052 -50.79744148 180.21780014 C-51.53266677 176.07116384 -52.27273804 171.92551515 -53.02392578 167.78173828 C-53.7486072 163.78316102 -54.46050352 159.78249963 -55.1635704 155.78006744 C-55.4341249 154.25303125 -55.70928623 152.72680393 -55.98910904 151.2014389 C-56.38010938 149.06560955 -56.75466699 146.92749739 -57.12548828 144.78808594 C-57.34310822 143.5711908 -57.56072815 142.35429565 -57.78494263 141.1005249 C-58.08684582 136.74792661 -56.9692539 135.15439257 -54.23280334 131.89524841 C-53.55922287 131.13502884 -52.8856424 130.37480927 -52.19165039 129.59155273 C-47.44060101 123.7215461 -45.2399484 117.65919069 -42.93359375 110.53515625 C-42.49424445 109.23016707 -42.05298614 107.92581927 -41.60997009 106.62207031 C-40.6777332 103.86630147 -39.75818304 101.10677157 -38.84906006 98.34329224 C-37.42794386 94.02385446 -35.97845974 89.71428689 -34.52392578 85.40600586 C-32.81959628 80.35243365 -31.12111084 75.29699084 -29.43169785 70.2384119 C-25.80806196 59.39018818 -22.09241739 48.57502224 -18.32156372 37.77706909 C-17.3989214 35.13110212 -16.48300785 32.48288338 -15.56811523 29.83422852 C-8.24634055 8.72209096 -8.24634055 8.72209096 -3.25 3.4375 C-2.32960938 2.44556641 -2.32960938 2.44556641 -1.390625 1.43359375 C-0.93171875 0.96050781 -0.4728125 0.48742188 0 0 Z " fill="#B5B497" transform="translate(1530,1900)"/>
<path d="M0 0 C0.00546844 1.13105415 0.00546844 1.13105415 0.01104736 2.28495789 C0.06290504 12.08610436 0.14503253 21.8867838 0.25 31.6875 C0.25845318 32.4785677 0.26690636 33.26963539 0.27561569 34.08467484 C0.54177141 58.08880569 1.37928018 81.99022351 3.0625 105.9375 C3.10947525 106.60614956 3.1564505 107.27479912 3.20484924 107.96371078 C3.7708051 115.97832653 4.36757776 123.99036005 5 132 C1.07718307 131.26057409 -2.43313035 130.178374 -6.1640625 128.7421875 C-7.36071533 128.28432861 -8.55736816 127.82646973 -9.7902832 127.35473633 C-11.06852236 126.86149147 -12.34676129 126.36824601 -13.625 125.875 C-16.23501201 124.87456143 -18.84606222 123.876844 -21.45703125 122.87890625 C-22.10208115 122.6319249 -22.74713104 122.38494354 -23.41172791 122.13047791 C-29.02971647 119.98157242 -34.66530444 117.88324917 -40.3125 115.8125 C-41.10543457 115.52165527 -41.89836914 115.23081055 -42.71533203 114.93115234 C-44.47643674 114.28620129 -46.23813535 113.64287216 -48 113 C-47.63648438 112.36835938 -47.27296875 111.73671875 -46.8984375 111.0859375 C-39.55424149 98.01703485 -34.60693683 84.36195372 -29.87915039 70.19177246 C-28.25831828 65.34335386 -26.61005452 60.5042515 -24.96484375 55.6640625 C-24.63318207 54.68743652 -24.30152039 53.71081055 -23.95980835 52.70458984 C-22.97406184 49.80276788 -21.98728156 46.90130003 -21 44 C-20.69137024 43.09245972 -20.38274048 42.18491943 -20.0647583 41.24987793 C-18.33808203 36.18183288 -16.59086767 31.12175316 -14.81253052 26.07159424 C-14.27730982 24.54234054 -13.74871082 23.01075072 -13.2272644 21.47674561 C-5.91551976 0 -5.91551976 0 0 0 Z " fill="#DAD9C6" transform="translate(1547,2126)"/>
<path d="M0 0 C0.33 0 0.66 0 1 0 C1.82949098 3.73226502 2.23593055 7.35336952 2.48071289 11.16723633 C2.56072037 12.38812454 2.64072784 13.60901276 2.72315979 14.86689758 C2.80549362 16.17539169 2.88782745 17.4838858 2.97265625 18.83203125 C3.06061523 20.1925391 3.14887134 21.55302777 3.2374115 22.91349792 C3.46887662 26.48234796 3.69631973 30.05144322 3.9229126 33.62060547 C4.15515369 37.26741 4.39121647 40.91396694 4.62695312 44.56054688 C5.08836593 51.70679503 5.54552797 58.85330672 6 66 C2.29270419 65.29866297 -1.00780509 64.32651307 -4.51953125 62.93359375 C-5.54111328 62.53076172 -6.56269531 62.12792969 -7.61523438 61.71289062 C-8.67033203 61.29201172 -9.72542969 60.87113281 -10.8125 60.4375 C-11.88693359 60.01275391 -12.96136719 59.58800781 -14.06835938 59.15039062 C-16.71374552 58.10399344 -19.35753511 57.05374756 -22 56 C-18.3415555 46.33020435 -14.67476817 36.663603 -11 27 C-10.75241943 26.34874146 -10.50483887 25.69748291 -10.24975586 25.02648926 C-8.6295476 20.76585204 -7.00360339 16.5074372 -5.375 12.25 C-4.94977051 11.13254395 -4.52454102 10.01508789 -4.08642578 8.86376953 C-3.69438965 7.84138184 -3.30235352 6.81899414 -2.8984375 5.765625 C-2.55474121 4.86618164 -2.21104492 3.96673828 -1.85693359 3.04003906 C-1 1 -1 1 0 0 Z " fill="#EBE9DC" transform="translate(1546,2192)"/>
<path d="M0 0 C4.75 1.875 4.75 1.875 7 3 C6.41896654 6.75424201 5.36679216 9.49318794 3.453125 12.765625 C2.9375 13.65636719 2.421875 14.54710937 1.890625 15.46484375 C1.34921875 16.38394531 0.8078125 17.30304688 0.25 18.25 C-0.80778564 20.06742092 -1.86508181 21.88512681 -2.921875 23.703125 C-3.43556641 24.58291016 -3.94925781 25.46269531 -4.47851562 26.36914062 C-6.7041409 30.21755814 -8.85936734 34.10380939 -11 38 C-14.28371835 33.07442248 -13.50972358 27.75535993 -13 22 C-11.05695792 13.11087338 -6.36386707 6.36386707 0 0 Z " fill="#CDCDB7" transform="translate(1574,1968)"/>
</svg>
